%TF.GenerationSoftware,KiCad,Pcbnew,7.0.10*%
%TF.CreationDate,2024-02-10T17:51:15-05:00*%
%TF.ProjectId,led_controller_i2c,6c65645f-636f-46e7-9472-6f6c6c65725f,rev?*%
%TF.SameCoordinates,Original*%
%TF.FileFunction,Soldermask,Top*%
%TF.FilePolarity,Negative*%
%FSLAX46Y46*%
G04 Gerber Fmt 4.6, Leading zero omitted, Abs format (unit mm)*
G04 Created by KiCad (PCBNEW 7.0.10) date 2024-02-10 17:51:15*
%MOMM*%
%LPD*%
G01*
G04 APERTURE LIST*
G04 Aperture macros list*
%AMRoundRect*
0 Rectangle with rounded corners*
0 $1 Rounding radius*
0 $2 $3 $4 $5 $6 $7 $8 $9 X,Y pos of 4 corners*
0 Add a 4 corners polygon primitive as box body*
4,1,4,$2,$3,$4,$5,$6,$7,$8,$9,$2,$3,0*
0 Add four circle primitives for the rounded corners*
1,1,$1+$1,$2,$3*
1,1,$1+$1,$4,$5*
1,1,$1+$1,$6,$7*
1,1,$1+$1,$8,$9*
0 Add four rect primitives between the rounded corners*
20,1,$1+$1,$2,$3,$4,$5,0*
20,1,$1+$1,$4,$5,$6,$7,0*
20,1,$1+$1,$6,$7,$8,$9,0*
20,1,$1+$1,$8,$9,$2,$3,0*%
%AMFreePoly0*
4,1,19,0.500000,-0.750000,0.000000,-0.750000,0.000000,-0.744911,-0.071157,-0.744911,-0.207708,-0.704816,-0.327430,-0.627875,-0.420627,-0.520320,-0.479746,-0.390866,-0.500000,-0.250000,-0.500000,0.250000,-0.479746,0.390866,-0.420627,0.520320,-0.327430,0.627875,-0.207708,0.704816,-0.071157,0.744911,0.000000,0.744911,0.000000,0.750000,0.500000,0.750000,0.500000,-0.750000,0.500000,-0.750000,
$1*%
%AMFreePoly1*
4,1,19,0.000000,0.744911,0.071157,0.744911,0.207708,0.704816,0.327430,0.627875,0.420627,0.520320,0.479746,0.390866,0.500000,0.250000,0.500000,-0.250000,0.479746,-0.390866,0.420627,-0.520320,0.327430,-0.627875,0.207708,-0.704816,0.071157,-0.744911,0.000000,-0.744911,0.000000,-0.750000,-0.500000,-0.750000,-0.500000,0.750000,0.000000,0.750000,0.000000,0.744911,0.000000,0.744911,
$1*%
G04 Aperture macros list end*
%ADD10C,3.800000*%
%ADD11C,2.020000*%
%ADD12R,2.200000X2.200000*%
%ADD13O,2.200000X2.200000*%
%ADD14C,2.100000*%
%ADD15R,2.000000X2.000000*%
%ADD16O,2.000000X2.000000*%
%ADD17RoundRect,0.150000X-0.825000X-0.150000X0.825000X-0.150000X0.825000X0.150000X-0.825000X0.150000X0*%
%ADD18R,0.740000X2.400000*%
%ADD19RoundRect,0.070000X0.650000X0.300000X-0.650000X0.300000X-0.650000X-0.300000X0.650000X-0.300000X0*%
%ADD20R,3.050000X1.520000*%
%ADD21FreePoly0,270.000000*%
%ADD22FreePoly1,270.000000*%
%ADD23RoundRect,0.250000X-0.600000X1.400000X-0.600000X-1.400000X0.600000X-1.400000X0.600000X1.400000X0*%
%ADD24RoundRect,0.250000X-0.412500X-1.100000X0.412500X-1.100000X0.412500X1.100000X-0.412500X1.100000X0*%
%ADD25RoundRect,0.250000X-1.100000X0.412500X-1.100000X-0.412500X1.100000X-0.412500X1.100000X0.412500X0*%
%ADD26RoundRect,0.250000X1.100000X-0.412500X1.100000X0.412500X-1.100000X0.412500X-1.100000X-0.412500X0*%
G04 APERTURE END LIST*
D10*
%TO.C,H2*%
X15500000Y-42500000D03*
%TD*%
%TO.C,H1*%
X42000000Y-18650000D03*
%TD*%
D11*
%TO.C,J3*%
X18505000Y-37765000D03*
X18505000Y-35225000D03*
%TD*%
D12*
%TO.C,D4*%
X40310000Y-14765000D03*
D13*
X32690000Y-14765000D03*
%TD*%
D14*
%TO.C,J2*%
X28045000Y-14265000D03*
X25505000Y-14265000D03*
X22965000Y-14265000D03*
%TD*%
%TO.C,J1*%
X19605000Y-14265000D03*
X17065000Y-14265000D03*
X14525000Y-14265000D03*
%TD*%
D15*
%TO.C,D1*%
X32505000Y-23725000D03*
D16*
X32505000Y-28805000D03*
%TD*%
D17*
%TO.C,U2*%
X27005000Y-17765000D03*
X27005000Y-19035000D03*
X27005000Y-20305000D03*
X27005000Y-21575000D03*
X31955000Y-21575000D03*
X31955000Y-20305000D03*
X31955000Y-19035000D03*
X31955000Y-17765000D03*
%TD*%
D18*
%TO.C,U1*%
X15730000Y-31215000D03*
X15730000Y-27315000D03*
X17000000Y-31215000D03*
X17000000Y-27315000D03*
X18270000Y-31215000D03*
X18270000Y-27315000D03*
X19540000Y-31215000D03*
X19540000Y-27315000D03*
X20810000Y-31215000D03*
X20810000Y-27315000D03*
X22080000Y-31215000D03*
X22080000Y-27315000D03*
X23350000Y-31215000D03*
X23350000Y-27315000D03*
%TD*%
D19*
%TO.C,Q3*%
X18455000Y-19075000D03*
X20555000Y-18125000D03*
X20555000Y-20025000D03*
%TD*%
%TO.C,Q2*%
X22455000Y-19075000D03*
X24555000Y-18125000D03*
X24555000Y-20025000D03*
%TD*%
%TO.C,Q1*%
X14355000Y-19065000D03*
X16455000Y-18115000D03*
X16455000Y-20015000D03*
%TD*%
D20*
%TO.C,L1*%
X26505000Y-23620000D03*
X26505000Y-25910000D03*
%TD*%
D21*
%TO.C,JP2*%
X17000000Y-22350000D03*
D22*
X17000000Y-23650000D03*
%TD*%
D21*
%TO.C,JP1*%
X27005000Y-28265000D03*
D22*
X27005000Y-29565000D03*
%TD*%
D23*
%TO.C,D2*%
X29505000Y-24515000D03*
X29505000Y-30015000D03*
%TD*%
D24*
%TO.C,C6*%
X26442500Y-33765000D03*
X29567500Y-33765000D03*
%TD*%
%TO.C,C5*%
X26442500Y-37265000D03*
X29567500Y-37265000D03*
%TD*%
D25*
%TO.C,C4*%
X36005000Y-34702500D03*
X36005000Y-37827500D03*
%TD*%
D26*
%TO.C,C3*%
X36005000Y-21390000D03*
X36005000Y-18265000D03*
%TD*%
D25*
%TO.C,C2*%
X36005000Y-23702500D03*
X36005000Y-26827500D03*
%TD*%
D26*
%TO.C,C1*%
X36005000Y-32327500D03*
X36005000Y-29202500D03*
%TD*%
M02*
