%TF.GenerationSoftware,KiCad,Pcbnew,7.0.10*%
%TF.CreationDate,2024-02-10T17:51:15-05:00*%
%TF.ProjectId,led_controller_i2c,6c65645f-636f-46e7-9472-6f6c6c65725f,rev?*%
%TF.SameCoordinates,Original*%
%TF.FileFunction,Copper,L1,Top*%
%TF.FilePolarity,Positive*%
%FSLAX46Y46*%
G04 Gerber Fmt 4.6, Leading zero omitted, Abs format (unit mm)*
G04 Created by KiCad (PCBNEW 7.0.10) date 2024-02-10 17:51:15*
%MOMM*%
%LPD*%
G01*
G04 APERTURE LIST*
G04 Aperture macros list*
%AMRoundRect*
0 Rectangle with rounded corners*
0 $1 Rounding radius*
0 $2 $3 $4 $5 $6 $7 $8 $9 X,Y pos of 4 corners*
0 Add a 4 corners polygon primitive as box body*
4,1,4,$2,$3,$4,$5,$6,$7,$8,$9,$2,$3,0*
0 Add four circle primitives for the rounded corners*
1,1,$1+$1,$2,$3*
1,1,$1+$1,$4,$5*
1,1,$1+$1,$6,$7*
1,1,$1+$1,$8,$9*
0 Add four rect primitives between the rounded corners*
20,1,$1+$1,$2,$3,$4,$5,0*
20,1,$1+$1,$4,$5,$6,$7,0*
20,1,$1+$1,$6,$7,$8,$9,0*
20,1,$1+$1,$8,$9,$2,$3,0*%
%AMFreePoly0*
4,1,19,0.500000,-0.750000,0.000000,-0.750000,0.000000,-0.744911,-0.071157,-0.744911,-0.207708,-0.704816,-0.327430,-0.627875,-0.420627,-0.520320,-0.479746,-0.390866,-0.500000,-0.250000,-0.500000,0.250000,-0.479746,0.390866,-0.420627,0.520320,-0.327430,0.627875,-0.207708,0.704816,-0.071157,0.744911,0.000000,0.744911,0.000000,0.750000,0.500000,0.750000,0.500000,-0.750000,0.500000,-0.750000,
$1*%
%AMFreePoly1*
4,1,19,0.000000,0.744911,0.071157,0.744911,0.207708,0.704816,0.327430,0.627875,0.420627,0.520320,0.479746,0.390866,0.500000,0.250000,0.500000,-0.250000,0.479746,-0.390866,0.420627,-0.520320,0.327430,-0.627875,0.207708,-0.704816,0.071157,-0.744911,0.000000,-0.744911,0.000000,-0.750000,-0.500000,-0.750000,-0.500000,0.750000,0.000000,0.750000,0.000000,0.744911,0.000000,0.744911,
$1*%
G04 Aperture macros list end*
%TA.AperFunction,ComponentPad*%
%ADD10C,3.800000*%
%TD*%
%TA.AperFunction,ComponentPad*%
%ADD11C,2.020000*%
%TD*%
%TA.AperFunction,ComponentPad*%
%ADD12R,2.200000X2.200000*%
%TD*%
%TA.AperFunction,ComponentPad*%
%ADD13O,2.200000X2.200000*%
%TD*%
%TA.AperFunction,ComponentPad*%
%ADD14C,2.100000*%
%TD*%
%TA.AperFunction,ComponentPad*%
%ADD15R,2.000000X2.000000*%
%TD*%
%TA.AperFunction,ComponentPad*%
%ADD16O,2.000000X2.000000*%
%TD*%
%TA.AperFunction,SMDPad,CuDef*%
%ADD17RoundRect,0.150000X-0.825000X-0.150000X0.825000X-0.150000X0.825000X0.150000X-0.825000X0.150000X0*%
%TD*%
%TA.AperFunction,SMDPad,CuDef*%
%ADD18R,0.740000X2.400000*%
%TD*%
%TA.AperFunction,SMDPad,CuDef*%
%ADD19R,1.300000X0.600000*%
%TD*%
%TA.AperFunction,SMDPad,CuDef*%
%ADD20R,3.050000X1.520000*%
%TD*%
%TA.AperFunction,SMDPad,CuDef*%
%ADD21FreePoly0,270.000000*%
%TD*%
%TA.AperFunction,SMDPad,CuDef*%
%ADD22FreePoly1,270.000000*%
%TD*%
%TA.AperFunction,SMDPad,CuDef*%
%ADD23RoundRect,0.250000X-0.600000X1.400000X-0.600000X-1.400000X0.600000X-1.400000X0.600000X1.400000X0*%
%TD*%
%TA.AperFunction,SMDPad,CuDef*%
%ADD24RoundRect,0.250000X-0.412500X-1.100000X0.412500X-1.100000X0.412500X1.100000X-0.412500X1.100000X0*%
%TD*%
%TA.AperFunction,SMDPad,CuDef*%
%ADD25RoundRect,0.250000X-1.100000X0.412500X-1.100000X-0.412500X1.100000X-0.412500X1.100000X0.412500X0*%
%TD*%
%TA.AperFunction,SMDPad,CuDef*%
%ADD26RoundRect,0.250000X1.100000X-0.412500X1.100000X0.412500X-1.100000X0.412500X-1.100000X-0.412500X0*%
%TD*%
%TA.AperFunction,ViaPad*%
%ADD27C,0.800000*%
%TD*%
%TA.AperFunction,Conductor*%
%ADD28C,0.250000*%
%TD*%
G04 APERTURE END LIST*
%TA.AperFunction,EtchedComponent*%
%TO.C,JP1*%
G36*
X27305000Y-29165000D02*
G01*
X26705000Y-29165000D01*
X26705000Y-28665000D01*
X27305000Y-28665000D01*
X27305000Y-29165000D01*
G37*
%TD.AperFunction*%
%TD*%
D10*
%TO.P,H2,1*%
%TO.N,N/C*%
X15500000Y-42500000D03*
%TD*%
%TO.P,H1,1*%
%TO.N,N/C*%
X42000000Y-18650000D03*
%TD*%
D11*
%TO.P,J3,1*%
%TO.N,Net-(U1-PF0)*%
X18505000Y-37765000D03*
%TO.P,J3,2*%
%TO.N,Net-(U1-PF1)*%
X18505000Y-35225000D03*
%TD*%
D12*
%TO.P,D4,1,K*%
%TO.N,vin*%
X40310000Y-14765000D03*
D13*
%TO.P,D4,2,A*%
%TO.N,Net-(D4-A)*%
X32690000Y-14765000D03*
%TD*%
D14*
%TO.P,J2,1*%
%TO.N,GND*%
X28045000Y-14265000D03*
%TO.P,J2,2*%
%TO.N,Net-(D4-A)*%
X25505000Y-14265000D03*
%TO.P,J2,3*%
X22965000Y-14265000D03*
%TD*%
%TO.P,J1,1*%
%TO.N,g*%
X19605000Y-14265000D03*
%TO.P,J1,2*%
%TO.N,b*%
X17065000Y-14265000D03*
%TO.P,J1,3*%
%TO.N,r*%
X14525000Y-14265000D03*
%TD*%
D15*
%TO.P,D1,1,K*%
%TO.N,Net-(D1-K)*%
X32505000Y-23725000D03*
D16*
%TO.P,D1,2,A*%
%TO.N,GND*%
X32505000Y-28805000D03*
%TD*%
D17*
%TO.P,U2,1,VIN*%
%TO.N,vin*%
X27005000Y-17765000D03*
%TO.P,U2,2,OUT*%
%TO.N,Net-(D1-K)*%
X27005000Y-19035000D03*
%TO.P,U2,3,FB*%
%TO.N,Net-(D2-K)*%
X27005000Y-20305000D03*
%TO.P,U2,4,~{EN}*%
%TO.N,GND*%
X27005000Y-21575000D03*
%TO.P,U2,5,GND*%
X31955000Y-21575000D03*
%TO.P,U2,6,GND*%
X31955000Y-20305000D03*
%TO.P,U2,7,GND*%
X31955000Y-19035000D03*
%TO.P,U2,8,GND*%
X31955000Y-17765000D03*
%TD*%
D18*
%TO.P,U1,1,BOOT0*%
%TO.N,GND*%
X15730000Y-31215000D03*
%TO.P,U1,2,PF0*%
%TO.N,Net-(U1-PF0)*%
X15730000Y-27315000D03*
%TO.P,U1,3,PF1*%
%TO.N,Net-(U1-PF1)*%
X17000000Y-31215000D03*
%TO.P,U1,4,NRST*%
%TO.N,Net-(JP2-B)*%
X17000000Y-27315000D03*
%TO.P,U1,5,VDDA*%
%TO.N,Net-(JP1-B)*%
X18270000Y-31215000D03*
%TO.P,U1,6,PA0*%
%TO.N,Net-(Q1-G)*%
X18270000Y-27315000D03*
%TO.P,U1,7,PA1*%
%TO.N,Net-(Q2-G)*%
X19540000Y-31215000D03*
%TO.P,U1,8,PA2*%
%TO.N,Net-(Q3-G)*%
X19540000Y-27315000D03*
%TO.P,U1,9,PA3*%
%TO.N,unconnected-(U1-PA3-Pad9)*%
X20810000Y-31215000D03*
%TO.P,U1,10,PA4*%
%TO.N,unconnected-(U1-PA4-Pad10)*%
X20810000Y-27315000D03*
%TO.P,U1,11,PA5*%
%TO.N,unconnected-(U1-PA5-Pad11)*%
X22080000Y-31215000D03*
%TO.P,U1,12,PA6*%
%TO.N,unconnected-(U1-PA6-Pad12)*%
X22080000Y-27315000D03*
%TO.P,U1,13,PA7*%
%TO.N,unconnected-(U1-PA7-Pad13)*%
X23350000Y-31215000D03*
%TO.P,U1,14,PB1*%
%TO.N,unconnected-(U1-PB1-Pad14)*%
X23350000Y-27315000D03*
%TD*%
D19*
%TO.P,Q3,3,D*%
%TO.N,GND*%
X18455000Y-19075000D03*
%TO.P,Q3,2,S*%
%TO.N,b*%
X20555000Y-18125000D03*
%TO.P,Q3,1,G*%
%TO.N,Net-(Q3-G)*%
X20555000Y-20025000D03*
%TD*%
%TO.P,Q2,3,D*%
%TO.N,GND*%
X22455000Y-19075000D03*
%TO.P,Q2,2,S*%
%TO.N,g*%
X24555000Y-18125000D03*
%TO.P,Q2,1,G*%
%TO.N,Net-(Q2-G)*%
X24555000Y-20025000D03*
%TD*%
%TO.P,Q1,3,D*%
%TO.N,GND*%
X14355000Y-19065000D03*
%TO.P,Q1,2,S*%
%TO.N,r*%
X16455000Y-18115000D03*
%TO.P,Q1,1,G*%
%TO.N,Net-(Q1-G)*%
X16455000Y-20015000D03*
%TD*%
D20*
%TO.P,L1,1*%
%TO.N,Net-(D1-K)*%
X26505000Y-23620000D03*
%TO.P,L1,2*%
%TO.N,Net-(D2-K)*%
X26505000Y-25910000D03*
%TD*%
D21*
%TO.P,JP2,1,A*%
%TO.N,GND*%
X17000000Y-22350000D03*
D22*
%TO.P,JP2,2,B*%
%TO.N,Net-(JP2-B)*%
X17000000Y-23650000D03*
%TD*%
D21*
%TO.P,JP1,1,A*%
%TO.N,Net-(D2-K)*%
X27005000Y-28265000D03*
D22*
%TO.P,JP1,2,B*%
%TO.N,Net-(JP1-B)*%
X27005000Y-29565000D03*
%TD*%
D23*
%TO.P,D2,1,K*%
%TO.N,Net-(D2-K)*%
X29505000Y-24515000D03*
%TO.P,D2,2,A*%
%TO.N,GND*%
X29505000Y-30015000D03*
%TD*%
D24*
%TO.P,C6,1*%
%TO.N,Net-(D2-K)*%
X26442500Y-33765000D03*
%TO.P,C6,2*%
%TO.N,GND*%
X29567500Y-33765000D03*
%TD*%
%TO.P,C5,1*%
%TO.N,Net-(D2-K)*%
X26442500Y-37265000D03*
%TO.P,C5,2*%
%TO.N,GND*%
X29567500Y-37265000D03*
%TD*%
D25*
%TO.P,C4,1*%
%TO.N,vin*%
X36005000Y-34702500D03*
%TO.P,C4,2*%
%TO.N,GND*%
X36005000Y-37827500D03*
%TD*%
D26*
%TO.P,C3,1*%
%TO.N,vin*%
X36005000Y-21390000D03*
%TO.P,C3,2*%
%TO.N,GND*%
X36005000Y-18265000D03*
%TD*%
D25*
%TO.P,C2,1*%
%TO.N,vin*%
X36005000Y-23702500D03*
%TO.P,C2,2*%
%TO.N,GND*%
X36005000Y-26827500D03*
%TD*%
D26*
%TO.P,C1,1*%
%TO.N,vin*%
X36005000Y-32327500D03*
%TO.P,C1,2*%
%TO.N,GND*%
X36005000Y-29202500D03*
%TD*%
D27*
%TO.N,GND*%
X36000000Y-14500000D03*
X38500000Y-16500000D03*
%TO.N,Net-(D2-K)*%
X29500000Y-27000000D03*
X29500000Y-20500000D03*
%TO.N,GND*%
X15000000Y-24500000D03*
X16000000Y-33500000D03*
%TD*%
D28*
%TO.N,Net-(Q2-G)*%
X23895000Y-29265000D02*
X20620000Y-29265000D01*
X20620000Y-29265000D02*
X19815000Y-30070000D01*
X24555000Y-28605000D02*
X23895000Y-29265000D01*
X24555000Y-20025000D02*
X24555000Y-28605000D01*
X19815000Y-30070000D02*
X19815000Y-31215000D01*
%TO.N,Net-(JP1-B)*%
X18740000Y-32740000D02*
X24330000Y-32740000D01*
X27005000Y-30065000D02*
X27005000Y-29565000D01*
X18500000Y-32500000D02*
X18740000Y-32740000D01*
X18500000Y-32100000D02*
X18500000Y-32500000D01*
X24330000Y-32740000D02*
X27005000Y-30065000D01*
%TO.N,Net-(JP2-B)*%
X17000000Y-27040000D02*
X17275000Y-27315000D01*
X17000000Y-23650000D02*
X17000000Y-27040000D01*
%TO.N,GND*%
X16590380Y-22350000D02*
X17000000Y-22350000D01*
X15925000Y-23015380D02*
X16590380Y-22350000D01*
X15925000Y-23575000D02*
X15925000Y-23015380D01*
X15000000Y-24500000D02*
X15925000Y-23575000D01*
X28970000Y-13340000D02*
X28045000Y-14265000D01*
X34840000Y-13340000D02*
X28970000Y-13340000D01*
X36000000Y-14500000D02*
X34840000Y-13340000D01*
X36735000Y-18265000D02*
X38500000Y-16500000D01*
X36005000Y-18265000D02*
X36735000Y-18265000D01*
X35505000Y-17765000D02*
X36005000Y-18265000D01*
X31955000Y-17765000D02*
X35505000Y-17765000D01*
%TO.N,Net-(D2-K)*%
X29305000Y-20305000D02*
X27005000Y-20305000D01*
X29500000Y-20500000D02*
X29305000Y-20305000D01*
X29500000Y-24520000D02*
X29505000Y-24515000D01*
X29500000Y-27000000D02*
X29500000Y-24520000D01*
%TO.N,GND*%
X16005000Y-33495000D02*
X16000000Y-33500000D01*
X16005000Y-31215000D02*
X16005000Y-33495000D01*
%TO.N,Net-(D4-A)*%
X26880000Y-15640000D02*
X31815000Y-15640000D01*
X31815000Y-15640000D02*
X32690000Y-14765000D01*
X25505000Y-14265000D02*
X26880000Y-15640000D01*
%TO.N,vin*%
X39000000Y-14765000D02*
X37500000Y-16265000D01*
X40310000Y-14765000D02*
X39000000Y-14765000D01*
X40000000Y-15075000D02*
X40310000Y-14765000D01*
X40000000Y-17395000D02*
X40000000Y-15075000D01*
X36005000Y-21390000D02*
X40000000Y-17395000D01*
X28505000Y-16265000D02*
X27005000Y-17765000D01*
X37500000Y-16265000D02*
X28505000Y-16265000D01*
%TO.N,Net-(U1-PF0)*%
X15005000Y-34265000D02*
X15005000Y-28315000D01*
X18505000Y-37765000D02*
X15005000Y-34265000D01*
%TO.N,Net-(U1-PF1)*%
X17275000Y-33995000D02*
X17275000Y-31215000D01*
X18505000Y-35225000D02*
X17275000Y-33995000D01*
%TO.N,vin*%
X36005000Y-23702500D02*
X36005000Y-21390000D01*
X36005000Y-32327500D02*
X37680000Y-30652500D01*
X37680000Y-30652500D02*
X37680000Y-25377500D01*
X37680000Y-25377500D02*
X36005000Y-23702500D01*
X36005000Y-34702500D02*
X36005000Y-32327500D01*
%TO.N,Net-(D2-K)*%
X26442500Y-33765000D02*
X26442500Y-37265000D01*
X26442500Y-32327500D02*
X26442500Y-33765000D01*
X28080000Y-28590000D02*
X28080000Y-30690000D01*
X27755000Y-28265000D02*
X28080000Y-28590000D01*
X28080000Y-30690000D02*
X26442500Y-32327500D01*
X27005000Y-28265000D02*
X27755000Y-28265000D01*
%TO.N,Net-(D1-K)*%
X31320000Y-22540000D02*
X32505000Y-23725000D01*
X28350000Y-22540000D02*
X31320000Y-22540000D01*
X27270000Y-23620000D02*
X28350000Y-22540000D01*
X26505000Y-23620000D02*
X27270000Y-23620000D01*
X26030001Y-19035000D02*
X27005000Y-19035000D01*
X25705000Y-19360001D02*
X26030001Y-19035000D01*
X26505000Y-23620000D02*
X25705000Y-22820000D01*
X25705000Y-22820000D02*
X25705000Y-19360001D01*
%TO.N,Net-(D2-K)*%
X26505000Y-27765000D02*
X27005000Y-28265000D01*
X26505000Y-25910000D02*
X26505000Y-27765000D01*
X29505000Y-25765000D02*
X29505000Y-24515000D01*
X27005000Y-28265000D02*
X29505000Y-25765000D01*
%TO.N,r*%
X14525000Y-15745000D02*
X14525000Y-14265000D01*
X14505000Y-15765000D02*
X14525000Y-15745000D01*
X14505000Y-16165000D02*
X14505000Y-15765000D01*
X16455000Y-18115000D02*
X14505000Y-16165000D01*
%TO.N,b*%
X18865000Y-18125000D02*
X17005000Y-16265000D01*
X17005000Y-16265000D02*
X17005000Y-14325000D01*
X20555000Y-18125000D02*
X18865000Y-18125000D01*
%TO.N,g*%
X24555000Y-17515000D02*
X24555000Y-18125000D01*
X20605000Y-17165000D02*
X24205000Y-17165000D01*
X19605000Y-16165000D02*
X20605000Y-17165000D01*
X24205000Y-17165000D02*
X24555000Y-17515000D01*
X19605000Y-14265000D02*
X19605000Y-16165000D01*
%TO.N,Net-(D2-K)*%
X28755000Y-23765000D02*
X29505000Y-24515000D01*
%TO.N,Net-(U1-PF0)*%
X15005000Y-28315000D02*
X16005000Y-27315000D01*
%TO.N,b*%
X17005000Y-14325000D02*
X17065000Y-14265000D01*
%TO.N,Net-(Q3-G)*%
X19815000Y-20765000D02*
X19815000Y-27315000D01*
X20555000Y-20025000D02*
X19815000Y-20765000D01*
%TO.N,Net-(Q1-G)*%
X18545000Y-22105000D02*
X16455000Y-20015000D01*
X18545000Y-27315000D02*
X18545000Y-22105000D01*
%TO.N,Net-(D4-A)*%
X25505000Y-14265000D02*
X22965000Y-14265000D01*
%TO.N,g*%
X19505000Y-14365000D02*
X19605000Y-14265000D01*
%TD*%
%TA.AperFunction,Conductor*%
%TO.N,GND*%
G36*
X13737928Y-12720185D02*
G01*
X13783683Y-12772989D01*
X13793627Y-12842147D01*
X13764602Y-12905703D01*
X13735679Y-12930227D01*
X13610826Y-13006737D01*
X13610823Y-13006738D01*
X13425241Y-13165241D01*
X13266738Y-13350823D01*
X13266737Y-13350826D01*
X13139222Y-13558910D01*
X13045830Y-13784380D01*
X13045828Y-13784387D01*
X13045828Y-13784388D01*
X13021417Y-13886066D01*
X12988853Y-14021702D01*
X12969706Y-14265000D01*
X12988853Y-14508297D01*
X12988853Y-14508300D01*
X12988854Y-14508302D01*
X13045791Y-14745459D01*
X13045830Y-14745619D01*
X13139222Y-14971089D01*
X13266737Y-15179173D01*
X13266738Y-15179176D01*
X13266741Y-15179179D01*
X13425241Y-15364759D01*
X13546176Y-15468047D01*
X13610823Y-15523261D01*
X13610825Y-15523262D01*
X13815975Y-15648978D01*
X13862850Y-15700789D01*
X13874634Y-15743033D01*
X13878949Y-15788671D01*
X13879500Y-15800343D01*
X13879500Y-16082255D01*
X13877775Y-16097872D01*
X13878061Y-16097899D01*
X13877326Y-16105665D01*
X13879439Y-16172872D01*
X13879500Y-16176767D01*
X13879500Y-16204357D01*
X13880003Y-16208335D01*
X13880918Y-16219967D01*
X13882290Y-16263624D01*
X13882291Y-16263627D01*
X13887880Y-16282867D01*
X13891824Y-16301911D01*
X13894336Y-16321792D01*
X13910414Y-16362403D01*
X13914197Y-16373452D01*
X13926381Y-16415388D01*
X13936580Y-16432634D01*
X13945138Y-16450103D01*
X13952514Y-16468732D01*
X13978181Y-16504060D01*
X13984593Y-16513821D01*
X14006828Y-16551417D01*
X14006833Y-16551424D01*
X14020990Y-16565580D01*
X14033627Y-16580375D01*
X14045406Y-16596587D01*
X14072721Y-16619184D01*
X14079057Y-16624425D01*
X14087698Y-16632288D01*
X15268181Y-17812771D01*
X15301666Y-17874094D01*
X15304500Y-17900452D01*
X15304500Y-18164466D01*
X15284815Y-18231505D01*
X15232011Y-18277260D01*
X15162853Y-18287204D01*
X15137168Y-18280648D01*
X15112382Y-18271403D01*
X15112372Y-18271401D01*
X15052844Y-18265000D01*
X14605000Y-18265000D01*
X14605000Y-18815000D01*
X15462893Y-18815000D01*
X15529932Y-18834685D01*
X15537204Y-18839733D01*
X15550562Y-18849733D01*
X15562668Y-18858795D01*
X15562671Y-18858797D01*
X15697517Y-18909091D01*
X15697516Y-18909091D01*
X15704444Y-18909835D01*
X15757127Y-18915500D01*
X17152872Y-18915499D01*
X17212483Y-18909091D01*
X17347331Y-18858796D01*
X17359439Y-18849732D01*
X17424904Y-18825316D01*
X17433749Y-18825000D01*
X19562893Y-18825000D01*
X19629932Y-18844685D01*
X19637204Y-18849733D01*
X19662668Y-18868795D01*
X19662671Y-18868797D01*
X19797517Y-18919091D01*
X19797516Y-18919091D01*
X19804444Y-18919835D01*
X19857127Y-18925500D01*
X21252872Y-18925499D01*
X21312483Y-18919091D01*
X21447331Y-18868796D01*
X21472796Y-18849733D01*
X21538261Y-18825316D01*
X21547107Y-18825000D01*
X22205000Y-18825000D01*
X22205000Y-18275000D01*
X21829499Y-18275000D01*
X21762460Y-18255315D01*
X21716705Y-18202511D01*
X21705499Y-18151002D01*
X21705499Y-17914499D01*
X21725184Y-17847461D01*
X21777988Y-17801706D01*
X21829499Y-17790500D01*
X23280500Y-17790500D01*
X23347539Y-17810185D01*
X23393294Y-17862989D01*
X23404500Y-17914500D01*
X23404500Y-18174466D01*
X23384815Y-18241505D01*
X23332011Y-18287260D01*
X23262853Y-18297204D01*
X23237168Y-18290648D01*
X23212382Y-18281403D01*
X23212372Y-18281401D01*
X23152844Y-18275000D01*
X22705000Y-18275000D01*
X22705000Y-18825000D01*
X23562893Y-18825000D01*
X23629932Y-18844685D01*
X23637204Y-18849733D01*
X23662668Y-18868795D01*
X23662671Y-18868797D01*
X23797517Y-18919091D01*
X23797516Y-18919091D01*
X23804444Y-18919835D01*
X23857127Y-18925500D01*
X25020405Y-18925499D01*
X25087444Y-18945184D01*
X25133199Y-18997987D01*
X25143143Y-19067146D01*
X25129069Y-19109232D01*
X25118804Y-19127905D01*
X25118803Y-19127907D01*
X25117921Y-19131343D01*
X25116494Y-19133739D01*
X25115932Y-19135160D01*
X25115702Y-19135069D01*
X25082180Y-19191379D01*
X25019655Y-19222562D01*
X24997818Y-19224500D01*
X23857129Y-19224500D01*
X23857123Y-19224501D01*
X23797516Y-19230908D01*
X23662671Y-19281202D01*
X23662668Y-19281204D01*
X23637204Y-19300267D01*
X23571739Y-19324684D01*
X23562893Y-19325000D01*
X22705000Y-19325000D01*
X22705000Y-19875000D01*
X23152828Y-19875000D01*
X23152844Y-19874999D01*
X23212372Y-19868598D01*
X23212377Y-19868597D01*
X23237164Y-19859352D01*
X23306856Y-19854366D01*
X23368180Y-19887850D01*
X23401666Y-19949173D01*
X23404500Y-19975533D01*
X23404500Y-20372870D01*
X23404501Y-20372876D01*
X23410908Y-20432483D01*
X23461202Y-20567328D01*
X23461206Y-20567335D01*
X23547452Y-20682544D01*
X23547455Y-20682547D01*
X23662664Y-20768793D01*
X23662671Y-20768797D01*
X23706138Y-20785009D01*
X23797517Y-20819091D01*
X23818756Y-20821374D01*
X23883304Y-20848110D01*
X23923154Y-20905502D01*
X23929500Y-20944663D01*
X23929500Y-25493831D01*
X23909815Y-25560870D01*
X23857011Y-25606625D01*
X23792247Y-25617120D01*
X23767873Y-25614500D01*
X23767865Y-25614500D01*
X22932129Y-25614500D01*
X22932123Y-25614501D01*
X22872516Y-25620908D01*
X22758333Y-25663496D01*
X22688641Y-25668480D01*
X22671667Y-25663496D01*
X22557482Y-25620908D01*
X22557483Y-25620908D01*
X22497883Y-25614501D01*
X22497881Y-25614500D01*
X22497873Y-25614500D01*
X22497864Y-25614500D01*
X21662129Y-25614500D01*
X21662123Y-25614501D01*
X21602516Y-25620908D01*
X21488333Y-25663496D01*
X21418641Y-25668480D01*
X21401667Y-25663496D01*
X21287482Y-25620908D01*
X21287483Y-25620908D01*
X21227883Y-25614501D01*
X21227881Y-25614500D01*
X21227873Y-25614500D01*
X21227865Y-25614500D01*
X20564500Y-25614500D01*
X20497461Y-25594815D01*
X20451706Y-25542011D01*
X20440500Y-25490500D01*
X20440500Y-21075452D01*
X20460185Y-21008413D01*
X20476819Y-20987771D01*
X20602772Y-20861818D01*
X20664095Y-20828333D01*
X20690453Y-20825499D01*
X21252871Y-20825499D01*
X21252872Y-20825499D01*
X21312483Y-20819091D01*
X21447331Y-20768796D01*
X21562546Y-20682546D01*
X21648796Y-20567331D01*
X21699091Y-20432483D01*
X21705500Y-20372873D01*
X21705499Y-19998998D01*
X21725183Y-19931961D01*
X21777987Y-19886206D01*
X21829499Y-19875000D01*
X22205000Y-19875000D01*
X22205000Y-19325000D01*
X21547107Y-19325000D01*
X21480068Y-19305315D01*
X21472796Y-19300267D01*
X21447331Y-19281204D01*
X21447328Y-19281202D01*
X21312482Y-19230908D01*
X21312483Y-19230908D01*
X21252883Y-19224501D01*
X21252881Y-19224500D01*
X21252873Y-19224500D01*
X21252864Y-19224500D01*
X19857129Y-19224500D01*
X19857123Y-19224501D01*
X19797516Y-19230908D01*
X19662671Y-19281202D01*
X19662668Y-19281204D01*
X19637204Y-19300267D01*
X19571739Y-19324684D01*
X19562893Y-19325000D01*
X18705000Y-19325000D01*
X18705000Y-19875000D01*
X19152828Y-19875000D01*
X19152844Y-19874999D01*
X19212372Y-19868598D01*
X19212377Y-19868597D01*
X19237164Y-19859352D01*
X19306856Y-19854366D01*
X19368180Y-19887850D01*
X19401666Y-19949173D01*
X19404500Y-19975533D01*
X19404500Y-20239299D01*
X19384815Y-20306338D01*
X19370890Y-20324185D01*
X19367096Y-20328225D01*
X19364389Y-20331018D01*
X19344889Y-20350517D01*
X19344875Y-20350534D01*
X19342407Y-20353715D01*
X19334843Y-20362570D01*
X19304937Y-20394418D01*
X19304936Y-20394420D01*
X19295284Y-20411976D01*
X19284610Y-20428226D01*
X19272329Y-20444061D01*
X19272324Y-20444068D01*
X19254975Y-20484158D01*
X19249838Y-20494644D01*
X19228803Y-20532906D01*
X19223822Y-20552307D01*
X19217521Y-20570710D01*
X19209562Y-20589102D01*
X19209561Y-20589105D01*
X19202728Y-20632243D01*
X19200360Y-20643674D01*
X19189501Y-20685971D01*
X19189500Y-20685982D01*
X19189500Y-20706016D01*
X19187973Y-20725413D01*
X19184840Y-20745196D01*
X19186125Y-20758793D01*
X19188950Y-20788674D01*
X19189500Y-20800343D01*
X19189500Y-21562867D01*
X19169815Y-21629906D01*
X19117011Y-21675661D01*
X19047853Y-21685605D01*
X18986460Y-21658411D01*
X18970945Y-21645576D01*
X18962304Y-21637713D01*
X17641818Y-20317227D01*
X17608333Y-20255904D01*
X17605499Y-20229546D01*
X17605499Y-19996739D01*
X17625184Y-19929700D01*
X17677988Y-19883945D01*
X17742760Y-19873450D01*
X17757168Y-19874999D01*
X17757172Y-19875000D01*
X18205000Y-19875000D01*
X18205000Y-19325000D01*
X17460465Y-19325000D01*
X17393426Y-19305315D01*
X17386154Y-19300267D01*
X17347330Y-19271203D01*
X17347328Y-19271202D01*
X17212482Y-19220908D01*
X17212483Y-19220908D01*
X17152883Y-19214501D01*
X17152881Y-19214500D01*
X17152873Y-19214500D01*
X17152864Y-19214500D01*
X15757129Y-19214500D01*
X15757123Y-19214501D01*
X15697516Y-19220908D01*
X15562671Y-19271202D01*
X15562668Y-19271204D01*
X15537204Y-19290267D01*
X15471739Y-19314684D01*
X15462893Y-19315000D01*
X14605000Y-19315000D01*
X14605000Y-19865000D01*
X15052828Y-19865000D01*
X15052844Y-19864999D01*
X15112372Y-19858598D01*
X15112377Y-19858597D01*
X15137164Y-19849352D01*
X15206856Y-19844366D01*
X15268180Y-19877850D01*
X15301666Y-19939173D01*
X15304500Y-19965533D01*
X15304500Y-20362870D01*
X15304501Y-20362876D01*
X15310908Y-20422483D01*
X15361202Y-20557328D01*
X15361206Y-20557335D01*
X15447452Y-20672544D01*
X15447455Y-20672547D01*
X15562664Y-20758793D01*
X15562671Y-20758797D01*
X15589472Y-20768793D01*
X15697517Y-20809091D01*
X15757127Y-20815500D01*
X16319547Y-20815499D01*
X16386586Y-20835183D01*
X16407228Y-20851818D01*
X17883181Y-22327771D01*
X17916666Y-22389094D01*
X17919500Y-22415452D01*
X17919500Y-22525619D01*
X17899815Y-22592658D01*
X17847011Y-22638413D01*
X17777857Y-22648357D01*
X17750008Y-22644353D01*
X17750000Y-22644353D01*
X17285763Y-22644353D01*
X17214236Y-22644353D01*
X16785764Y-22644353D01*
X16714237Y-22644353D01*
X16250000Y-22644353D01*
X16249997Y-22644353D01*
X16178039Y-22649499D01*
X16178034Y-22649500D01*
X16039949Y-22690045D01*
X15918873Y-22767856D01*
X15824623Y-22876626D01*
X15824622Y-22876628D01*
X15764834Y-23007543D01*
X15744353Y-23150001D01*
X15744353Y-23721889D01*
X15764834Y-23864341D01*
X15764834Y-23864343D01*
X15805342Y-24002299D01*
X15865129Y-24133215D01*
X15865129Y-24133217D01*
X15942862Y-24254171D01*
X15942864Y-24254175D01*
X16037108Y-24362938D01*
X16037110Y-24362941D01*
X16145762Y-24457088D01*
X16145768Y-24457092D01*
X16145774Y-24457097D01*
X16266845Y-24534904D01*
X16266850Y-24534906D01*
X16266855Y-24534909D01*
X16302010Y-24550963D01*
X16354814Y-24596717D01*
X16374500Y-24663756D01*
X16374500Y-25504608D01*
X16354815Y-25571647D01*
X16302011Y-25617402D01*
X16232853Y-25627346D01*
X16209419Y-25621366D01*
X16207483Y-25620908D01*
X16147883Y-25614501D01*
X16147881Y-25614500D01*
X16147873Y-25614500D01*
X16147864Y-25614500D01*
X15312129Y-25614500D01*
X15312123Y-25614501D01*
X15252516Y-25620908D01*
X15117671Y-25671202D01*
X15117664Y-25671206D01*
X15002455Y-25757452D01*
X15002452Y-25757455D01*
X14916206Y-25872664D01*
X14916202Y-25872671D01*
X14865908Y-26007517D01*
X14859501Y-26067116D01*
X14859500Y-26067135D01*
X14859500Y-27524546D01*
X14839815Y-27591585D01*
X14823181Y-27612227D01*
X14621208Y-27814199D01*
X14608951Y-27824020D01*
X14609134Y-27824241D01*
X14603122Y-27829214D01*
X14557098Y-27878223D01*
X14554391Y-27881016D01*
X14534889Y-27900517D01*
X14534875Y-27900534D01*
X14532407Y-27903715D01*
X14524843Y-27912570D01*
X14494937Y-27944418D01*
X14494936Y-27944420D01*
X14485284Y-27961976D01*
X14474610Y-27978226D01*
X14462329Y-27994061D01*
X14462324Y-27994068D01*
X14444975Y-28034158D01*
X14439838Y-28044644D01*
X14418803Y-28082906D01*
X14413822Y-28102307D01*
X14407521Y-28120710D01*
X14399562Y-28139102D01*
X14399561Y-28139105D01*
X14392728Y-28182243D01*
X14390360Y-28193674D01*
X14379501Y-28235971D01*
X14379500Y-28235982D01*
X14379500Y-28256016D01*
X14377973Y-28275413D01*
X14374840Y-28295196D01*
X14376834Y-28316290D01*
X14378950Y-28338674D01*
X14379500Y-28350343D01*
X14379500Y-34182255D01*
X14377775Y-34197872D01*
X14378061Y-34197899D01*
X14377326Y-34205665D01*
X14379439Y-34272872D01*
X14379500Y-34276767D01*
X14379500Y-34304357D01*
X14380003Y-34308335D01*
X14380918Y-34319967D01*
X14382290Y-34363624D01*
X14382291Y-34363627D01*
X14387880Y-34382867D01*
X14391824Y-34401911D01*
X14391897Y-34402484D01*
X14394336Y-34421792D01*
X14410414Y-34462403D01*
X14414197Y-34473452D01*
X14426381Y-34515388D01*
X14436580Y-34532634D01*
X14445138Y-34550103D01*
X14452514Y-34568732D01*
X14478181Y-34604060D01*
X14484593Y-34613821D01*
X14506828Y-34651417D01*
X14506833Y-34651424D01*
X14520990Y-34665580D01*
X14533628Y-34680376D01*
X14545405Y-34696586D01*
X14545406Y-34696587D01*
X14579057Y-34724425D01*
X14587698Y-34732288D01*
X17031959Y-37176550D01*
X17065444Y-37237873D01*
X17064852Y-37293178D01*
X17008482Y-37527977D01*
X16989829Y-37765000D01*
X17008482Y-38002020D01*
X17008482Y-38002023D01*
X17008483Y-38002025D01*
X17063987Y-38233214D01*
X17063988Y-38233216D01*
X17154972Y-38452873D01*
X17279199Y-38655592D01*
X17279202Y-38655597D01*
X17349195Y-38737548D01*
X17433612Y-38836388D01*
X17536610Y-38924356D01*
X17614402Y-38990797D01*
X17614407Y-38990800D01*
X17817126Y-39115027D01*
X17894786Y-39147194D01*
X18036786Y-39206013D01*
X18267975Y-39261517D01*
X18505000Y-39280171D01*
X18742025Y-39261517D01*
X18973214Y-39206013D01*
X19192873Y-39115027D01*
X19395595Y-38990799D01*
X19576388Y-38836388D01*
X19730799Y-38655595D01*
X19855027Y-38452873D01*
X19946013Y-38233214D01*
X20001517Y-38002025D01*
X20020171Y-37765000D01*
X20001517Y-37527975D01*
X19946013Y-37296786D01*
X19855027Y-37077127D01*
X19855027Y-37077126D01*
X19730800Y-36874407D01*
X19730797Y-36874402D01*
X19608015Y-36730643D01*
X19576388Y-36693612D01*
X19454242Y-36589290D01*
X19416049Y-36530783D01*
X19415550Y-36460916D01*
X19452904Y-36401869D01*
X19454242Y-36400710D01*
X19454728Y-36400294D01*
X19576388Y-36296388D01*
X19730799Y-36115595D01*
X19855027Y-35912873D01*
X19946013Y-35693214D01*
X20001517Y-35462025D01*
X20020171Y-35225000D01*
X20001517Y-34987975D01*
X19946013Y-34756786D01*
X19882752Y-34604060D01*
X19855027Y-34537126D01*
X19730800Y-34334407D01*
X19730797Y-34334402D01*
X19654773Y-34245390D01*
X19576388Y-34153612D01*
X19455035Y-34049967D01*
X19395597Y-33999202D01*
X19395592Y-33999199D01*
X19192873Y-33874972D01*
X18973216Y-33783988D01*
X18973214Y-33783987D01*
X18742025Y-33728483D01*
X18742023Y-33728482D01*
X18742020Y-33728482D01*
X18505000Y-33709829D01*
X18267977Y-33728482D01*
X18053447Y-33779986D01*
X17983664Y-33776495D01*
X17926847Y-33735831D01*
X17901034Y-33670905D01*
X17900500Y-33659412D01*
X17900500Y-33084452D01*
X17920185Y-33017413D01*
X17972989Y-32971658D01*
X18042147Y-32961714D01*
X18105703Y-32990739D01*
X18112164Y-32996754D01*
X18239202Y-33123793D01*
X18249022Y-33136050D01*
X18249243Y-33135868D01*
X18254213Y-33141876D01*
X18254214Y-33141877D01*
X18275043Y-33161437D01*
X18303224Y-33187901D01*
X18306022Y-33190613D01*
X18325522Y-33210114D01*
X18325526Y-33210117D01*
X18325529Y-33210120D01*
X18328702Y-33212581D01*
X18337574Y-33220159D01*
X18369418Y-33250062D01*
X18386976Y-33259714D01*
X18403235Y-33270395D01*
X18419064Y-33282673D01*
X18459155Y-33300021D01*
X18469626Y-33305151D01*
X18492180Y-33317550D01*
X18507902Y-33326194D01*
X18507904Y-33326195D01*
X18507908Y-33326197D01*
X18527316Y-33331180D01*
X18545719Y-33337481D01*
X18564101Y-33345436D01*
X18564102Y-33345436D01*
X18564104Y-33345437D01*
X18607250Y-33352270D01*
X18618672Y-33354636D01*
X18660981Y-33365500D01*
X18681016Y-33365500D01*
X18700414Y-33367026D01*
X18720194Y-33370159D01*
X18720195Y-33370160D01*
X18720195Y-33370159D01*
X18720196Y-33370160D01*
X18763675Y-33366050D01*
X18775344Y-33365500D01*
X24247257Y-33365500D01*
X24262877Y-33367224D01*
X24262904Y-33366939D01*
X24270660Y-33367671D01*
X24270667Y-33367673D01*
X24337873Y-33365561D01*
X24341768Y-33365500D01*
X24369346Y-33365500D01*
X24369350Y-33365500D01*
X24373324Y-33364997D01*
X24384963Y-33364080D01*
X24428627Y-33362709D01*
X24447869Y-33357117D01*
X24466912Y-33353174D01*
X24486792Y-33350664D01*
X24527401Y-33334585D01*
X24538444Y-33330803D01*
X24580390Y-33318618D01*
X24597629Y-33308422D01*
X24615103Y-33299862D01*
X24633727Y-33292488D01*
X24633727Y-33292487D01*
X24633732Y-33292486D01*
X24669083Y-33266800D01*
X24678814Y-33260408D01*
X24716420Y-33238170D01*
X24730589Y-33223999D01*
X24745379Y-33211368D01*
X24761587Y-33199594D01*
X24789438Y-33165926D01*
X24797279Y-33157309D01*
X25067820Y-32886769D01*
X25129142Y-32853285D01*
X25198834Y-32858269D01*
X25254767Y-32900141D01*
X25279184Y-32965605D01*
X25279500Y-32974451D01*
X25279500Y-34915001D01*
X25279501Y-34915018D01*
X25290000Y-35017796D01*
X25290001Y-35017799D01*
X25312886Y-35086859D01*
X25345186Y-35184334D01*
X25437096Y-35333345D01*
X25437289Y-35333657D01*
X25530951Y-35427319D01*
X25564436Y-35488642D01*
X25559452Y-35558334D01*
X25530951Y-35602681D01*
X25437289Y-35696342D01*
X25345187Y-35845663D01*
X25345185Y-35845668D01*
X25322916Y-35912873D01*
X25290001Y-36012203D01*
X25290001Y-36012204D01*
X25290000Y-36012204D01*
X25279500Y-36114983D01*
X25279500Y-38415001D01*
X25279501Y-38415018D01*
X25290000Y-38517796D01*
X25290001Y-38517799D01*
X25303695Y-38559124D01*
X25345186Y-38684334D01*
X25437288Y-38833656D01*
X25561344Y-38957712D01*
X25710666Y-39049814D01*
X25877203Y-39104999D01*
X25979991Y-39115500D01*
X26905008Y-39115499D01*
X26905016Y-39115498D01*
X26905019Y-39115498D01*
X26961302Y-39109748D01*
X27007797Y-39104999D01*
X27174334Y-39049814D01*
X27323656Y-38957712D01*
X27447712Y-38833656D01*
X27539814Y-38684334D01*
X27594999Y-38517797D01*
X27605500Y-38415009D01*
X27605499Y-37515000D01*
X28405001Y-37515000D01*
X28405001Y-38414986D01*
X28415494Y-38517697D01*
X28470641Y-38684119D01*
X28470643Y-38684124D01*
X28562684Y-38833345D01*
X28686654Y-38957315D01*
X28835875Y-39049356D01*
X28835880Y-39049358D01*
X29002302Y-39104505D01*
X29002309Y-39104506D01*
X29105019Y-39114999D01*
X29317499Y-39114999D01*
X29317500Y-39114998D01*
X29317500Y-37515000D01*
X29817500Y-37515000D01*
X29817500Y-39114999D01*
X30029972Y-39114999D01*
X30029986Y-39114998D01*
X30132697Y-39104505D01*
X30299119Y-39049358D01*
X30299124Y-39049356D01*
X30448345Y-38957315D01*
X30572315Y-38833345D01*
X30664356Y-38684124D01*
X30664358Y-38684119D01*
X30719505Y-38517697D01*
X30719506Y-38517690D01*
X30729999Y-38414986D01*
X30730000Y-38414973D01*
X30730000Y-38077500D01*
X34155001Y-38077500D01*
X34155001Y-38289986D01*
X34165494Y-38392697D01*
X34220641Y-38559119D01*
X34220643Y-38559124D01*
X34312684Y-38708345D01*
X34436654Y-38832315D01*
X34585875Y-38924356D01*
X34585880Y-38924358D01*
X34752302Y-38979505D01*
X34752309Y-38979506D01*
X34855019Y-38989999D01*
X35754999Y-38989999D01*
X35755000Y-38989998D01*
X35755000Y-38077500D01*
X36255000Y-38077500D01*
X36255000Y-38989999D01*
X37154972Y-38989999D01*
X37154986Y-38989998D01*
X37257697Y-38979505D01*
X37424119Y-38924358D01*
X37424124Y-38924356D01*
X37573345Y-38832315D01*
X37697315Y-38708345D01*
X37789356Y-38559124D01*
X37789358Y-38559119D01*
X37844505Y-38392697D01*
X37844506Y-38392690D01*
X37854999Y-38289986D01*
X37855000Y-38289973D01*
X37855000Y-38077500D01*
X36255000Y-38077500D01*
X35755000Y-38077500D01*
X34155001Y-38077500D01*
X30730000Y-38077500D01*
X30730000Y-37577500D01*
X34155000Y-37577500D01*
X35755000Y-37577500D01*
X35755000Y-36665000D01*
X36255000Y-36665000D01*
X36255000Y-37577500D01*
X37854999Y-37577500D01*
X37854999Y-37365028D01*
X37854998Y-37365013D01*
X37844505Y-37262302D01*
X37789358Y-37095880D01*
X37789356Y-37095875D01*
X37697315Y-36946654D01*
X37573345Y-36822684D01*
X37424124Y-36730643D01*
X37424119Y-36730641D01*
X37257697Y-36675494D01*
X37257690Y-36675493D01*
X37154986Y-36665000D01*
X36255000Y-36665000D01*
X35755000Y-36665000D01*
X34855028Y-36665000D01*
X34855012Y-36665001D01*
X34752302Y-36675494D01*
X34585880Y-36730641D01*
X34585875Y-36730643D01*
X34436654Y-36822684D01*
X34312684Y-36946654D01*
X34220643Y-37095875D01*
X34220641Y-37095880D01*
X34165494Y-37262302D01*
X34165493Y-37262309D01*
X34155000Y-37365013D01*
X34155000Y-37577500D01*
X30730000Y-37577500D01*
X30730000Y-37515000D01*
X29817500Y-37515000D01*
X29317500Y-37515000D01*
X28405001Y-37515000D01*
X27605499Y-37515000D01*
X27605499Y-37015000D01*
X28405000Y-37015000D01*
X29317500Y-37015000D01*
X29317500Y-34015000D01*
X29817500Y-34015000D01*
X29817500Y-37015000D01*
X30729999Y-37015000D01*
X30729999Y-36115028D01*
X30729998Y-36115013D01*
X30719505Y-36012302D01*
X30664358Y-35845880D01*
X30664356Y-35845875D01*
X30572315Y-35696654D01*
X30478342Y-35602681D01*
X30444857Y-35541358D01*
X30449841Y-35471666D01*
X30478342Y-35427319D01*
X30572315Y-35333345D01*
X30664356Y-35184124D01*
X30664358Y-35184119D01*
X30719505Y-35017697D01*
X30719506Y-35017690D01*
X30729999Y-34914986D01*
X30730000Y-34914973D01*
X30730000Y-34015000D01*
X29817500Y-34015000D01*
X29317500Y-34015000D01*
X28405001Y-34015000D01*
X28405001Y-34914986D01*
X28415494Y-35017697D01*
X28470641Y-35184119D01*
X28470643Y-35184124D01*
X28562684Y-35333345D01*
X28656658Y-35427319D01*
X28690143Y-35488642D01*
X28685159Y-35558334D01*
X28656658Y-35602681D01*
X28562684Y-35696654D01*
X28470643Y-35845875D01*
X28470641Y-35845880D01*
X28415494Y-36012302D01*
X28415493Y-36012309D01*
X28405000Y-36115013D01*
X28405000Y-37015000D01*
X27605499Y-37015000D01*
X27605499Y-36114992D01*
X27594999Y-36012203D01*
X27539814Y-35845666D01*
X27447712Y-35696344D01*
X27354049Y-35602681D01*
X27320564Y-35541358D01*
X27325548Y-35471666D01*
X27354049Y-35427319D01*
X27447712Y-35333656D01*
X27539814Y-35184334D01*
X27594999Y-35017797D01*
X27605500Y-34915009D01*
X27605499Y-32614992D01*
X27594999Y-32512203D01*
X27539814Y-32345666D01*
X27539810Y-32345659D01*
X27503201Y-32286306D01*
X27484761Y-32218914D01*
X27505684Y-32152250D01*
X27521054Y-32133534D01*
X28003782Y-31650806D01*
X28065101Y-31617324D01*
X28134792Y-31622308D01*
X28190726Y-31664179D01*
X28209165Y-31699485D01*
X28220642Y-31734121D01*
X28220643Y-31734124D01*
X28312684Y-31883345D01*
X28436654Y-32007315D01*
X28507011Y-32050712D01*
X28553735Y-32102660D01*
X28564957Y-32171623D01*
X28547453Y-32221348D01*
X28470643Y-32345875D01*
X28470641Y-32345880D01*
X28415494Y-32512302D01*
X28415493Y-32512309D01*
X28405000Y-32615013D01*
X28405000Y-33515000D01*
X29317500Y-33515000D01*
X29317500Y-32208000D01*
X29291319Y-32181819D01*
X29257834Y-32120496D01*
X29255000Y-32094138D01*
X29255000Y-30265000D01*
X29755000Y-30265000D01*
X29755000Y-31872000D01*
X29781181Y-31898181D01*
X29814666Y-31959504D01*
X29817500Y-31985862D01*
X29817500Y-33515000D01*
X30729999Y-33515000D01*
X30729999Y-32615028D01*
X30729998Y-32615013D01*
X30719505Y-32512302D01*
X30664358Y-32345880D01*
X30664356Y-32345875D01*
X30572315Y-32196654D01*
X30565562Y-32189901D01*
X30532077Y-32128578D01*
X30537061Y-32058886D01*
X30569774Y-32013961D01*
X30568237Y-32012424D01*
X30697315Y-31883345D01*
X30789356Y-31734124D01*
X30789358Y-31734119D01*
X30844505Y-31567697D01*
X30844506Y-31567690D01*
X30854999Y-31464986D01*
X30855000Y-31464973D01*
X30855000Y-30265000D01*
X29755000Y-30265000D01*
X29255000Y-30265000D01*
X29255000Y-29889000D01*
X29274685Y-29821961D01*
X29327489Y-29776206D01*
X29379000Y-29765000D01*
X30854999Y-29765000D01*
X30854999Y-29368931D01*
X30874684Y-29301892D01*
X30927488Y-29256137D01*
X30996646Y-29246193D01*
X31060202Y-29275218D01*
X31092555Y-29319121D01*
X31181267Y-29521367D01*
X31317232Y-29729478D01*
X31485592Y-29912364D01*
X31485602Y-29912373D01*
X31681762Y-30065051D01*
X31681771Y-30065057D01*
X31900385Y-30183364D01*
X31900396Y-30183369D01*
X32135507Y-30264083D01*
X32254999Y-30284023D01*
X32255000Y-30284022D01*
X32255000Y-29240501D01*
X32362685Y-29289680D01*
X32469237Y-29305000D01*
X32540763Y-29305000D01*
X32647315Y-29289680D01*
X32755000Y-29240501D01*
X32755000Y-30284023D01*
X32874492Y-30264083D01*
X33109603Y-30183369D01*
X33109614Y-30183364D01*
X33328228Y-30065057D01*
X33328237Y-30065051D01*
X33524397Y-29912373D01*
X33524407Y-29912364D01*
X33692767Y-29729478D01*
X33828733Y-29521365D01*
X33917444Y-29319122D01*
X33962399Y-29265636D01*
X34029135Y-29244945D01*
X34096463Y-29263619D01*
X34143007Y-29315729D01*
X34155000Y-29368931D01*
X34155000Y-29664970D01*
X34155001Y-29664987D01*
X34165494Y-29767697D01*
X34220641Y-29934119D01*
X34220643Y-29934124D01*
X34312684Y-30083345D01*
X34436654Y-30207315D01*
X34585875Y-30299356D01*
X34585880Y-30299358D01*
X34752302Y-30354505D01*
X34752309Y-30354506D01*
X34855019Y-30364999D01*
X35754999Y-30364999D01*
X35755000Y-30364998D01*
X35755000Y-27077500D01*
X34155001Y-27077500D01*
X34155001Y-27289986D01*
X34165494Y-27392697D01*
X34220641Y-27559119D01*
X34220643Y-27559124D01*
X34312684Y-27708345D01*
X34436655Y-27832316D01*
X34436659Y-27832319D01*
X34561726Y-27909462D01*
X34608451Y-27961410D01*
X34619672Y-28030372D01*
X34591829Y-28094454D01*
X34561726Y-28120538D01*
X34436659Y-28197680D01*
X34436655Y-28197683D01*
X34312684Y-28321654D01*
X34220643Y-28470875D01*
X34220639Y-28470884D01*
X34210913Y-28500236D01*
X34171139Y-28557680D01*
X34106623Y-28584502D01*
X34037847Y-28572186D01*
X33986648Y-28524642D01*
X33973002Y-28491670D01*
X33928588Y-28316283D01*
X33828732Y-28088632D01*
X33692767Y-27880521D01*
X33524407Y-27697635D01*
X33524397Y-27697626D01*
X33328237Y-27544948D01*
X33328228Y-27544942D01*
X33109614Y-27426635D01*
X33109603Y-27426630D01*
X32874492Y-27345916D01*
X32755000Y-27325976D01*
X32755000Y-28369498D01*
X32647315Y-28320320D01*
X32540763Y-28305000D01*
X32469237Y-28305000D01*
X32362685Y-28320320D01*
X32255000Y-28369498D01*
X32255000Y-27325976D01*
X32254999Y-27325976D01*
X32135507Y-27345916D01*
X31900396Y-27426630D01*
X31900385Y-27426635D01*
X31681771Y-27544942D01*
X31681762Y-27544948D01*
X31485602Y-27697626D01*
X31485592Y-27697635D01*
X31317232Y-27880521D01*
X31181267Y-28088632D01*
X31081411Y-28316284D01*
X31081409Y-28316290D01*
X31062115Y-28392477D01*
X31026575Y-28452632D01*
X30964154Y-28484024D01*
X30894671Y-28476684D01*
X30840186Y-28432945D01*
X30824204Y-28401038D01*
X30789359Y-28295882D01*
X30789356Y-28295875D01*
X30697315Y-28146654D01*
X30573345Y-28022684D01*
X30424124Y-27930643D01*
X30424119Y-27930641D01*
X30257697Y-27875494D01*
X30257689Y-27875493D01*
X30194577Y-27869045D01*
X30129885Y-27842648D01*
X30089734Y-27785467D01*
X30086871Y-27715656D01*
X30115027Y-27662718D01*
X30232533Y-27532216D01*
X30327179Y-27368284D01*
X30385674Y-27188256D01*
X30405460Y-27000000D01*
X30385674Y-26811744D01*
X30364860Y-26747688D01*
X30362865Y-26677851D01*
X30398945Y-26618018D01*
X30418866Y-26604706D01*
X30418187Y-26603605D01*
X30424332Y-26599814D01*
X30424334Y-26599814D01*
X30460511Y-26577500D01*
X34155000Y-26577500D01*
X35755000Y-26577500D01*
X35755000Y-25665000D01*
X34855028Y-25665000D01*
X34855012Y-25665001D01*
X34752302Y-25675494D01*
X34585880Y-25730641D01*
X34585875Y-25730643D01*
X34436654Y-25822684D01*
X34312684Y-25946654D01*
X34220643Y-26095875D01*
X34220641Y-26095880D01*
X34165494Y-26262302D01*
X34165493Y-26262309D01*
X34155000Y-26365013D01*
X34155000Y-26577500D01*
X30460511Y-26577500D01*
X30573656Y-26507712D01*
X30697712Y-26383656D01*
X30789814Y-26234334D01*
X30844999Y-26067797D01*
X30855500Y-25965009D01*
X30855499Y-25065099D01*
X30875183Y-24998063D01*
X30927987Y-24952308D01*
X30997146Y-24942364D01*
X31060702Y-24971389D01*
X31078765Y-24990790D01*
X31084210Y-24998063D01*
X31134395Y-25065102D01*
X31147455Y-25082547D01*
X31262664Y-25168793D01*
X31262671Y-25168797D01*
X31397517Y-25219091D01*
X31397516Y-25219091D01*
X31404444Y-25219835D01*
X31457127Y-25225500D01*
X33552872Y-25225499D01*
X33612483Y-25219091D01*
X33747331Y-25168796D01*
X33862546Y-25082546D01*
X33948796Y-24967331D01*
X33999091Y-24832483D01*
X34005500Y-24772873D01*
X34005499Y-24523506D01*
X34025183Y-24456471D01*
X34077987Y-24410716D01*
X34147146Y-24400772D01*
X34210701Y-24429797D01*
X34235037Y-24458412D01*
X34312288Y-24583656D01*
X34436344Y-24707712D01*
X34585666Y-24799814D01*
X34752203Y-24854999D01*
X34854991Y-24865500D01*
X36232047Y-24865499D01*
X36299086Y-24885184D01*
X36319728Y-24901818D01*
X36871229Y-25453319D01*
X36904714Y-25514642D01*
X36899730Y-25584334D01*
X36857858Y-25640267D01*
X36792394Y-25664684D01*
X36783548Y-25665000D01*
X36255000Y-25665000D01*
X36255000Y-30364999D01*
X36783548Y-30364999D01*
X36850587Y-30384684D01*
X36896342Y-30437488D01*
X36906286Y-30506646D01*
X36877261Y-30570202D01*
X36871229Y-30576680D01*
X36319727Y-31128181D01*
X36258404Y-31161666D01*
X36232046Y-31164500D01*
X34854998Y-31164500D01*
X34854981Y-31164501D01*
X34752203Y-31175000D01*
X34752200Y-31175001D01*
X34585668Y-31230185D01*
X34585663Y-31230187D01*
X34436342Y-31322289D01*
X34312289Y-31446342D01*
X34220187Y-31595663D01*
X34220185Y-31595668D01*
X34201913Y-31650809D01*
X34165001Y-31762203D01*
X34165001Y-31762204D01*
X34165000Y-31762204D01*
X34154500Y-31864983D01*
X34154500Y-32790001D01*
X34154501Y-32790019D01*
X34165000Y-32892796D01*
X34165001Y-32892799D01*
X34206295Y-33017413D01*
X34220186Y-33059334D01*
X34312288Y-33208656D01*
X34436344Y-33332712D01*
X34560775Y-33409461D01*
X34607499Y-33461409D01*
X34618722Y-33530372D01*
X34590878Y-33594454D01*
X34560775Y-33620539D01*
X34436342Y-33697289D01*
X34312289Y-33821342D01*
X34220187Y-33970663D01*
X34220185Y-33970668D01*
X34208223Y-34006767D01*
X34165001Y-34137203D01*
X34165001Y-34137204D01*
X34165000Y-34137204D01*
X34154500Y-34239983D01*
X34154500Y-35165001D01*
X34154501Y-35165019D01*
X34165000Y-35267796D01*
X34165001Y-35267799D01*
X34220185Y-35434331D01*
X34220187Y-35434336D01*
X34237263Y-35462020D01*
X34312288Y-35583656D01*
X34436344Y-35707712D01*
X34585666Y-35799814D01*
X34752203Y-35854999D01*
X34854991Y-35865500D01*
X37155008Y-35865499D01*
X37257797Y-35854999D01*
X37424334Y-35799814D01*
X37573656Y-35707712D01*
X37697712Y-35583656D01*
X37789814Y-35434334D01*
X37844999Y-35267797D01*
X37855500Y-35165009D01*
X37855499Y-34239992D01*
X37851992Y-34205665D01*
X37844999Y-34137203D01*
X37844998Y-34137200D01*
X37830558Y-34093624D01*
X37789814Y-33970666D01*
X37697712Y-33821344D01*
X37573656Y-33697288D01*
X37573655Y-33697287D01*
X37449225Y-33620539D01*
X37402500Y-33568591D01*
X37391277Y-33499629D01*
X37419120Y-33435547D01*
X37449225Y-33409461D01*
X37573656Y-33332712D01*
X37697712Y-33208656D01*
X37789814Y-33059334D01*
X37844999Y-32892797D01*
X37855500Y-32790009D01*
X37855499Y-31864992D01*
X37844999Y-31762203D01*
X37789814Y-31595666D01*
X37777044Y-31574962D01*
X37758604Y-31507573D01*
X37779526Y-31440909D01*
X37794897Y-31422191D01*
X38063786Y-31153302D01*
X38076048Y-31143480D01*
X38075865Y-31143259D01*
X38081868Y-31138291D01*
X38081877Y-31138286D01*
X38127934Y-31089239D01*
X38130582Y-31086506D01*
X38150120Y-31066970D01*
X38152570Y-31063810D01*
X38160154Y-31054929D01*
X38190062Y-31023082D01*
X38199714Y-31005523D01*
X38210389Y-30989272D01*
X38222674Y-30973436D01*
X38240030Y-30933325D01*
X38245161Y-30922854D01*
X38266194Y-30884598D01*
X38266194Y-30884597D01*
X38266197Y-30884592D01*
X38271180Y-30865180D01*
X38277477Y-30846791D01*
X38285438Y-30828395D01*
X38292270Y-30785248D01*
X38294639Y-30773816D01*
X38305499Y-30731522D01*
X38305500Y-30731517D01*
X38305500Y-30711483D01*
X38307027Y-30692082D01*
X38310160Y-30672304D01*
X38306050Y-30628824D01*
X38305500Y-30617155D01*
X38305500Y-25460242D01*
X38307224Y-25444622D01*
X38306939Y-25444595D01*
X38307673Y-25436833D01*
X38305561Y-25369612D01*
X38305500Y-25365718D01*
X38305500Y-25338156D01*
X38305500Y-25338150D01*
X38304996Y-25334168D01*
X38304081Y-25322529D01*
X38302710Y-25278873D01*
X38297119Y-25259630D01*
X38293173Y-25240578D01*
X38290664Y-25220708D01*
X38274579Y-25180083D01*
X38270806Y-25169062D01*
X38258618Y-25127110D01*
X38258617Y-25127109D01*
X38258617Y-25127107D01*
X38258616Y-25127106D01*
X38248423Y-25109871D01*
X38239861Y-25092394D01*
X38232487Y-25073769D01*
X38206816Y-25038437D01*
X38200405Y-25028677D01*
X38178170Y-24991080D01*
X38178168Y-24991078D01*
X38178165Y-24991074D01*
X38164006Y-24976915D01*
X38151368Y-24962119D01*
X38144240Y-24952308D01*
X38139594Y-24945913D01*
X38105940Y-24918072D01*
X38097299Y-24910209D01*
X37794903Y-24607812D01*
X37761418Y-24546489D01*
X37766402Y-24476797D01*
X37777041Y-24455042D01*
X37789814Y-24434334D01*
X37844999Y-24267797D01*
X37855500Y-24165009D01*
X37855499Y-23239992D01*
X37844999Y-23137203D01*
X37789814Y-22970666D01*
X37697712Y-22821344D01*
X37573656Y-22697288D01*
X37573655Y-22697287D01*
X37499890Y-22651789D01*
X37453165Y-22599841D01*
X37441942Y-22530879D01*
X37469786Y-22466796D01*
X37499890Y-22440711D01*
X37504079Y-22438126D01*
X37573656Y-22395212D01*
X37697712Y-22271156D01*
X37789814Y-22121834D01*
X37844999Y-21955297D01*
X37855500Y-21852509D01*
X37855499Y-20927492D01*
X37844999Y-20824703D01*
X37789814Y-20658166D01*
X37777044Y-20637462D01*
X37758605Y-20570069D01*
X37779529Y-20503406D01*
X37794898Y-20484691D01*
X39402710Y-18876879D01*
X39464031Y-18843396D01*
X39533723Y-18848380D01*
X39589656Y-18890252D01*
X39612862Y-18947653D01*
X39612990Y-18947629D01*
X39613112Y-18948270D01*
X39613409Y-18949004D01*
X39613717Y-18951441D01*
X39613719Y-18951456D01*
X39613720Y-18951457D01*
X39665120Y-19220908D01*
X39670320Y-19248164D01*
X39763659Y-19535431D01*
X39763661Y-19535436D01*
X39892265Y-19808732D01*
X39892268Y-19808738D01*
X40054111Y-20063763D01*
X40054114Y-20063767D01*
X40054115Y-20063768D01*
X40246651Y-20296504D01*
X40391453Y-20432483D01*
X40466836Y-20503272D01*
X40466846Y-20503280D01*
X40711193Y-20680808D01*
X40711198Y-20680810D01*
X40711205Y-20680816D01*
X40975896Y-20826332D01*
X40975901Y-20826334D01*
X40975903Y-20826335D01*
X40975904Y-20826336D01*
X41256734Y-20937524D01*
X41256737Y-20937525D01*
X41354259Y-20962564D01*
X41549302Y-21012642D01*
X41696039Y-21031179D01*
X41848963Y-21050499D01*
X41848969Y-21050499D01*
X41848973Y-21050500D01*
X41848975Y-21050500D01*
X42151025Y-21050500D01*
X42151027Y-21050500D01*
X42151032Y-21050499D01*
X42151036Y-21050499D01*
X42230591Y-21040448D01*
X42450698Y-21012642D01*
X42743262Y-20937525D01*
X42743265Y-20937524D01*
X43024095Y-20826336D01*
X43024096Y-20826335D01*
X43024094Y-20826335D01*
X43024104Y-20826332D01*
X43288795Y-20680816D01*
X43533162Y-20503274D01*
X43753349Y-20296504D01*
X43945885Y-20063768D01*
X44107733Y-19808736D01*
X44236341Y-19535430D01*
X44329681Y-19248160D01*
X44386280Y-18951457D01*
X44386281Y-18951441D01*
X44405246Y-18650005D01*
X44405246Y-18649994D01*
X44386281Y-18348553D01*
X44386280Y-18348546D01*
X44386280Y-18348543D01*
X44329681Y-18051840D01*
X44236341Y-17764570D01*
X44107733Y-17491264D01*
X44079828Y-17447293D01*
X43945888Y-17236236D01*
X43943901Y-17233834D01*
X43753349Y-17003496D01*
X43671695Y-16926818D01*
X43533163Y-16796727D01*
X43533153Y-16796719D01*
X43288806Y-16619191D01*
X43288799Y-16619186D01*
X43288795Y-16619184D01*
X43024104Y-16473668D01*
X43024101Y-16473666D01*
X43024096Y-16473664D01*
X43024095Y-16473663D01*
X42743265Y-16362475D01*
X42743262Y-16362474D01*
X42450695Y-16287357D01*
X42151036Y-16249500D01*
X42151027Y-16249500D01*
X41979364Y-16249500D01*
X41912325Y-16229815D01*
X41866570Y-16177011D01*
X41856626Y-16107853D01*
X41863182Y-16082167D01*
X41891624Y-16005909D01*
X41904091Y-15972483D01*
X41910500Y-15912873D01*
X41910499Y-13617128D01*
X41904091Y-13557517D01*
X41870017Y-13466161D01*
X41853797Y-13422671D01*
X41853793Y-13422664D01*
X41767547Y-13307455D01*
X41767544Y-13307452D01*
X41652335Y-13221206D01*
X41652328Y-13221202D01*
X41517482Y-13170908D01*
X41517483Y-13170908D01*
X41457883Y-13164501D01*
X41457881Y-13164500D01*
X41457873Y-13164500D01*
X41457864Y-13164500D01*
X39162129Y-13164500D01*
X39162123Y-13164501D01*
X39102516Y-13170908D01*
X38967671Y-13221202D01*
X38967664Y-13221206D01*
X38852455Y-13307452D01*
X38852452Y-13307455D01*
X38766206Y-13422664D01*
X38766202Y-13422671D01*
X38715908Y-13557517D01*
X38709501Y-13617116D01*
X38709501Y-13617123D01*
X38709500Y-13617135D01*
X38709500Y-14139373D01*
X38689815Y-14206412D01*
X38648623Y-14246104D01*
X38613580Y-14266828D01*
X38599408Y-14281000D01*
X38584623Y-14293628D01*
X38571882Y-14302886D01*
X38568412Y-14305407D01*
X38540571Y-14339059D01*
X38532711Y-14347696D01*
X37277228Y-15603181D01*
X37215905Y-15636666D01*
X37189547Y-15639500D01*
X34245719Y-15639500D01*
X34178680Y-15619815D01*
X34132925Y-15567011D01*
X34122981Y-15497853D01*
X34131158Y-15468047D01*
X34216873Y-15261110D01*
X34236543Y-15179179D01*
X34275683Y-15016148D01*
X34295449Y-14765000D01*
X34275683Y-14513852D01*
X34216873Y-14268889D01*
X34120466Y-14036141D01*
X34120466Y-14036140D01*
X33988839Y-13821346D01*
X33988838Y-13821343D01*
X33932851Y-13755791D01*
X33825224Y-13629776D01*
X33698571Y-13521604D01*
X33633656Y-13466161D01*
X33633653Y-13466160D01*
X33418859Y-13334533D01*
X33186110Y-13238126D01*
X32941151Y-13179317D01*
X32690000Y-13159551D01*
X32438848Y-13179317D01*
X32193889Y-13238126D01*
X31961140Y-13334533D01*
X31746346Y-13466160D01*
X31746343Y-13466161D01*
X31554776Y-13629776D01*
X31391161Y-13821343D01*
X31391160Y-13821346D01*
X31259533Y-14036140D01*
X31163126Y-14268889D01*
X31104317Y-14513848D01*
X31084551Y-14765000D01*
X31093662Y-14880772D01*
X31079297Y-14949149D01*
X31030246Y-14998905D01*
X30970044Y-15014500D01*
X29597835Y-15014500D01*
X29530796Y-14994815D01*
X29485041Y-14942011D01*
X29475097Y-14872853D01*
X29483274Y-14843048D01*
X29523695Y-14745461D01*
X29523695Y-14745459D01*
X29580651Y-14508219D01*
X29599792Y-14265000D01*
X29580651Y-14021780D01*
X29523696Y-13784542D01*
X29430331Y-13559138D01*
X29306494Y-13357057D01*
X28570929Y-14092622D01*
X28568116Y-14079085D01*
X28498558Y-13944844D01*
X28395362Y-13834348D01*
X28266181Y-13755791D01*
X28214996Y-13741449D01*
X28952941Y-13003504D01*
X28833365Y-12930227D01*
X28786490Y-12878415D01*
X28775067Y-12809485D01*
X28802725Y-12745323D01*
X28860680Y-12706298D01*
X28898155Y-12700500D01*
X44776000Y-12700500D01*
X44843039Y-12720185D01*
X44888794Y-12772989D01*
X44900000Y-12824500D01*
X44900000Y-45796000D01*
X44880315Y-45863039D01*
X44827511Y-45908794D01*
X44776000Y-45920000D01*
X12824500Y-45920000D01*
X12757461Y-45900315D01*
X12711706Y-45847511D01*
X12700500Y-45796000D01*
X12700500Y-42500005D01*
X13094754Y-42500005D01*
X13113718Y-42801446D01*
X13113719Y-42801453D01*
X13170320Y-43098164D01*
X13263659Y-43385431D01*
X13263661Y-43385436D01*
X13392265Y-43658732D01*
X13392268Y-43658738D01*
X13554111Y-43913763D01*
X13746652Y-44146505D01*
X13966836Y-44353272D01*
X13966846Y-44353280D01*
X14211193Y-44530808D01*
X14211198Y-44530810D01*
X14211205Y-44530816D01*
X14475896Y-44676332D01*
X14475901Y-44676334D01*
X14475903Y-44676335D01*
X14475904Y-44676336D01*
X14756734Y-44787524D01*
X14756737Y-44787525D01*
X14854259Y-44812564D01*
X15049302Y-44862642D01*
X15196039Y-44881179D01*
X15348963Y-44900499D01*
X15348969Y-44900499D01*
X15348973Y-44900500D01*
X15348975Y-44900500D01*
X15651025Y-44900500D01*
X15651027Y-44900500D01*
X15651032Y-44900499D01*
X15651036Y-44900499D01*
X15730591Y-44890448D01*
X15950698Y-44862642D01*
X16243262Y-44787525D01*
X16243265Y-44787524D01*
X16524095Y-44676336D01*
X16524096Y-44676335D01*
X16524094Y-44676335D01*
X16524104Y-44676332D01*
X16788795Y-44530816D01*
X17033162Y-44353274D01*
X17253349Y-44146504D01*
X17445885Y-43913768D01*
X17607733Y-43658736D01*
X17736341Y-43385430D01*
X17829681Y-43098160D01*
X17886280Y-42801457D01*
X17905246Y-42500000D01*
X17886280Y-42198543D01*
X17829681Y-41901840D01*
X17736341Y-41614570D01*
X17607733Y-41341264D01*
X17445885Y-41086232D01*
X17253349Y-40853496D01*
X17033162Y-40646726D01*
X17033159Y-40646724D01*
X17033153Y-40646719D01*
X16788806Y-40469191D01*
X16788799Y-40469186D01*
X16788795Y-40469184D01*
X16524104Y-40323668D01*
X16524101Y-40323666D01*
X16524096Y-40323664D01*
X16524095Y-40323663D01*
X16243265Y-40212475D01*
X16243262Y-40212474D01*
X15950695Y-40137357D01*
X15651036Y-40099500D01*
X15651027Y-40099500D01*
X15348973Y-40099500D01*
X15348963Y-40099500D01*
X15049304Y-40137357D01*
X14756737Y-40212474D01*
X14756734Y-40212475D01*
X14475904Y-40323663D01*
X14475903Y-40323664D01*
X14211205Y-40469184D01*
X14211193Y-40469191D01*
X13966846Y-40646719D01*
X13966836Y-40646727D01*
X13746652Y-40853494D01*
X13554111Y-41086236D01*
X13392268Y-41341261D01*
X13392265Y-41341267D01*
X13263661Y-41614563D01*
X13263659Y-41614568D01*
X13170320Y-41901835D01*
X13113719Y-42198546D01*
X13113718Y-42198553D01*
X13094754Y-42499994D01*
X13094754Y-42500005D01*
X12700500Y-42500005D01*
X12700500Y-19315000D01*
X13205000Y-19315000D01*
X13205000Y-19412844D01*
X13211401Y-19472372D01*
X13211403Y-19472379D01*
X13261645Y-19607086D01*
X13261649Y-19607093D01*
X13347809Y-19722187D01*
X13347812Y-19722190D01*
X13462906Y-19808350D01*
X13462913Y-19808354D01*
X13597620Y-19858596D01*
X13597627Y-19858598D01*
X13657155Y-19864999D01*
X13657172Y-19865000D01*
X14105000Y-19865000D01*
X14105000Y-19315000D01*
X13205000Y-19315000D01*
X12700500Y-19315000D01*
X12700500Y-18815000D01*
X13205000Y-18815000D01*
X14105000Y-18815000D01*
X14105000Y-18265000D01*
X13657155Y-18265000D01*
X13597627Y-18271401D01*
X13597620Y-18271403D01*
X13462913Y-18321645D01*
X13462906Y-18321649D01*
X13347812Y-18407809D01*
X13347809Y-18407812D01*
X13261649Y-18522906D01*
X13261645Y-18522913D01*
X13211403Y-18657620D01*
X13211401Y-18657627D01*
X13205000Y-18717155D01*
X13205000Y-18815000D01*
X12700500Y-18815000D01*
X12700500Y-12824500D01*
X12720185Y-12757461D01*
X12772989Y-12711706D01*
X12824500Y-12700500D01*
X13670889Y-12700500D01*
X13737928Y-12720185D01*
G37*
%TD.AperFunction*%
%TA.AperFunction,Conductor*%
G36*
X18948330Y-28966502D02*
G01*
X19058021Y-29007414D01*
X19062517Y-29009091D01*
X19062516Y-29009091D01*
X19069444Y-29009835D01*
X19122127Y-29015500D01*
X19685548Y-29015499D01*
X19752586Y-29035183D01*
X19798341Y-29087987D01*
X19808285Y-29157146D01*
X19779260Y-29220702D01*
X19773228Y-29227180D01*
X19522226Y-29478181D01*
X19460903Y-29511666D01*
X19434545Y-29514500D01*
X19122130Y-29514500D01*
X19122123Y-29514501D01*
X19062516Y-29520908D01*
X18948333Y-29563496D01*
X18878641Y-29568480D01*
X18861667Y-29563496D01*
X18747482Y-29520908D01*
X18747483Y-29520908D01*
X18687883Y-29514501D01*
X18687881Y-29514500D01*
X18687873Y-29514500D01*
X18687864Y-29514500D01*
X17852129Y-29514500D01*
X17852123Y-29514501D01*
X17792516Y-29520908D01*
X17678333Y-29563496D01*
X17608641Y-29568480D01*
X17591667Y-29563496D01*
X17477482Y-29520908D01*
X17477483Y-29520908D01*
X17417883Y-29514501D01*
X17417881Y-29514500D01*
X17417873Y-29514500D01*
X17417864Y-29514500D01*
X16582129Y-29514500D01*
X16582123Y-29514501D01*
X16522516Y-29520908D01*
X16407618Y-29563763D01*
X16337926Y-29568747D01*
X16320952Y-29563763D01*
X16207379Y-29521403D01*
X16207372Y-29521401D01*
X16147844Y-29515000D01*
X15980000Y-29515000D01*
X15980000Y-32915000D01*
X16147828Y-32915000D01*
X16147844Y-32914999D01*
X16207372Y-32908598D01*
X16207376Y-32908597D01*
X16320951Y-32866236D01*
X16390643Y-32861252D01*
X16407608Y-32866232D01*
X16498521Y-32900141D01*
X16521192Y-32908597D01*
X16522517Y-32909091D01*
X16538757Y-32910837D01*
X16603306Y-32937574D01*
X16643154Y-32994967D01*
X16649500Y-33034126D01*
X16649500Y-33912255D01*
X16647775Y-33927872D01*
X16648061Y-33927899D01*
X16647326Y-33935665D01*
X16649439Y-34002872D01*
X16649500Y-34006767D01*
X16649500Y-34034357D01*
X16650003Y-34038335D01*
X16650918Y-34049967D01*
X16652290Y-34093624D01*
X16652291Y-34093627D01*
X16657880Y-34112867D01*
X16661824Y-34131911D01*
X16664336Y-34151792D01*
X16680414Y-34192403D01*
X16684197Y-34203452D01*
X16696381Y-34245388D01*
X16706580Y-34262634D01*
X16715138Y-34280103D01*
X16722514Y-34298732D01*
X16748181Y-34334060D01*
X16754593Y-34343821D01*
X16776828Y-34381417D01*
X16776833Y-34381424D01*
X16790990Y-34395580D01*
X16803628Y-34410376D01*
X16815405Y-34426586D01*
X16815406Y-34426587D01*
X16849057Y-34454425D01*
X16857698Y-34462288D01*
X17031959Y-34636549D01*
X17065444Y-34697872D01*
X17064852Y-34753177D01*
X17008482Y-34987977D01*
X17000700Y-35086859D01*
X16975816Y-35152147D01*
X16919584Y-35193617D01*
X16849859Y-35198104D01*
X16789401Y-35164810D01*
X15666819Y-34042228D01*
X15633334Y-33980905D01*
X15630500Y-33954547D01*
X15630500Y-29139499D01*
X15650185Y-29072460D01*
X15702989Y-29026705D01*
X15754500Y-29015499D01*
X16147871Y-29015499D01*
X16147872Y-29015499D01*
X16207483Y-29009091D01*
X16321667Y-28966502D01*
X16391358Y-28961519D01*
X16408330Y-28966502D01*
X16518021Y-29007414D01*
X16522517Y-29009091D01*
X16522516Y-29009091D01*
X16529444Y-29009835D01*
X16582127Y-29015500D01*
X17417872Y-29015499D01*
X17477483Y-29009091D01*
X17591667Y-28966502D01*
X17661358Y-28961519D01*
X17678330Y-28966502D01*
X17788021Y-29007414D01*
X17792517Y-29009091D01*
X17792516Y-29009091D01*
X17799444Y-29009835D01*
X17852127Y-29015500D01*
X18687872Y-29015499D01*
X18747483Y-29009091D01*
X18861667Y-28966502D01*
X18931358Y-28961519D01*
X18948330Y-28966502D01*
G37*
%TD.AperFunction*%
%TA.AperFunction,Conductor*%
G36*
X38700995Y-16051107D02*
G01*
X38756928Y-16092979D01*
X38765845Y-16106853D01*
X38852452Y-16222544D01*
X38852455Y-16222547D01*
X38967664Y-16308793D01*
X38967671Y-16308797D01*
X38981970Y-16314130D01*
X39102517Y-16359091D01*
X39162127Y-16365500D01*
X39250500Y-16365499D01*
X39317538Y-16385183D01*
X39363294Y-16437986D01*
X39374500Y-16489499D01*
X39374500Y-17084546D01*
X39354815Y-17151585D01*
X39338181Y-17172227D01*
X38012884Y-18497522D01*
X37951561Y-18531007D01*
X37881869Y-18526023D01*
X37864717Y-18515000D01*
X36255000Y-18515000D01*
X36255000Y-19427499D01*
X36783547Y-19427499D01*
X36850586Y-19447184D01*
X36896341Y-19499988D01*
X36906285Y-19569146D01*
X36877260Y-19632702D01*
X36871228Y-19639180D01*
X36319726Y-20190681D01*
X36258403Y-20224166D01*
X36232045Y-20227000D01*
X34854998Y-20227000D01*
X34854981Y-20227001D01*
X34752203Y-20237500D01*
X34752200Y-20237501D01*
X34585668Y-20292685D01*
X34585663Y-20292687D01*
X34436342Y-20384789D01*
X34312289Y-20508842D01*
X34220187Y-20658163D01*
X34220185Y-20658168D01*
X34210215Y-20688256D01*
X34165001Y-20824703D01*
X34165001Y-20824704D01*
X34165000Y-20824704D01*
X34154500Y-20927483D01*
X34154500Y-21852501D01*
X34154501Y-21852519D01*
X34165000Y-21955296D01*
X34165001Y-21955299D01*
X34220185Y-22121831D01*
X34220187Y-22121836D01*
X34238799Y-22152011D01*
X34312288Y-22271156D01*
X34436344Y-22395212D01*
X34506700Y-22438607D01*
X34510110Y-22440711D01*
X34556835Y-22492659D01*
X34568056Y-22561622D01*
X34540213Y-22625704D01*
X34510110Y-22651789D01*
X34436342Y-22697289D01*
X34312289Y-22821342D01*
X34235038Y-22946587D01*
X34183090Y-22993311D01*
X34114127Y-23004534D01*
X34050045Y-22976690D01*
X34011189Y-22918621D01*
X34005499Y-22881490D01*
X34005499Y-22677129D01*
X34005498Y-22677123D01*
X34004177Y-22664835D01*
X33999091Y-22617517D01*
X33992498Y-22599841D01*
X33948797Y-22482671D01*
X33948793Y-22482664D01*
X33862547Y-22367455D01*
X33862544Y-22367452D01*
X33747335Y-22281206D01*
X33747328Y-22281202D01*
X33612482Y-22230908D01*
X33612483Y-22230908D01*
X33552883Y-22224501D01*
X33552881Y-22224500D01*
X33552873Y-22224500D01*
X33552865Y-22224500D01*
X33457154Y-22224500D01*
X33390115Y-22204815D01*
X33344360Y-22152011D01*
X33334416Y-22082853D01*
X33350422Y-22037379D01*
X33381281Y-21985198D01*
X33427100Y-21827486D01*
X33427295Y-21825001D01*
X33427295Y-21825000D01*
X30482705Y-21825000D01*
X30466173Y-21842883D01*
X30464855Y-21849156D01*
X30415800Y-21898910D01*
X30355606Y-21914500D01*
X28604394Y-21914500D01*
X28537355Y-21894815D01*
X28491600Y-21842011D01*
X28491264Y-21840111D01*
X28477295Y-21825000D01*
X26879000Y-21825000D01*
X26811961Y-21805315D01*
X26766206Y-21752511D01*
X26755000Y-21701000D01*
X26755000Y-21449000D01*
X26774685Y-21381961D01*
X26827489Y-21336206D01*
X26879000Y-21325000D01*
X28477295Y-21325000D01*
X28477295Y-21324998D01*
X28477100Y-21322513D01*
X28431281Y-21164801D01*
X28403379Y-21117621D01*
X28386196Y-21049897D01*
X28408356Y-20983635D01*
X28462822Y-20939871D01*
X28510111Y-20930500D01*
X28637150Y-20930500D01*
X28704189Y-20950185D01*
X28744536Y-20992499D01*
X28767466Y-21032214D01*
X28767467Y-21032216D01*
X28894129Y-21172888D01*
X29047265Y-21284148D01*
X29047270Y-21284151D01*
X29220192Y-21361142D01*
X29220197Y-21361144D01*
X29405354Y-21400500D01*
X29405355Y-21400500D01*
X29594644Y-21400500D01*
X29594646Y-21400500D01*
X29779803Y-21361144D01*
X29952730Y-21284151D01*
X30105871Y-21172888D01*
X30232533Y-21032216D01*
X30327179Y-20868284D01*
X30340810Y-20826332D01*
X30345881Y-20810726D01*
X30385318Y-20753050D01*
X30449676Y-20725851D01*
X30518523Y-20737765D01*
X30569999Y-20785009D01*
X30570544Y-20785922D01*
X30612314Y-20856552D01*
X30617100Y-20862722D01*
X30614753Y-20864542D01*
X30641564Y-20913642D01*
X30636580Y-20983334D01*
X30615541Y-21016069D01*
X30617100Y-21017278D01*
X30612314Y-21023447D01*
X30528718Y-21164801D01*
X30482899Y-21322513D01*
X30482704Y-21324998D01*
X30482705Y-21325000D01*
X31705000Y-21325000D01*
X31705000Y-20555000D01*
X32205000Y-20555000D01*
X32205000Y-21325000D01*
X33427295Y-21325000D01*
X33427295Y-21324998D01*
X33427100Y-21322513D01*
X33381281Y-21164801D01*
X33297685Y-21023447D01*
X33292900Y-21017278D01*
X33295252Y-21015453D01*
X33268445Y-20966405D01*
X33273402Y-20896712D01*
X33294465Y-20863936D01*
X33292900Y-20862722D01*
X33297685Y-20856552D01*
X33381281Y-20715198D01*
X33427100Y-20557486D01*
X33427295Y-20555001D01*
X33427295Y-20555000D01*
X32205000Y-20555000D01*
X31705000Y-20555000D01*
X31705000Y-19285000D01*
X32205000Y-19285000D01*
X32205000Y-20055000D01*
X33427295Y-20055000D01*
X33427295Y-20054998D01*
X33427100Y-20052513D01*
X33381281Y-19894801D01*
X33297685Y-19753447D01*
X33292900Y-19747278D01*
X33295252Y-19745453D01*
X33268445Y-19696405D01*
X33273402Y-19626712D01*
X33294465Y-19593936D01*
X33292900Y-19592722D01*
X33297685Y-19586552D01*
X33381281Y-19445198D01*
X33427100Y-19287486D01*
X33427295Y-19285001D01*
X33427295Y-19285000D01*
X32205000Y-19285000D01*
X31705000Y-19285000D01*
X30482705Y-19285000D01*
X30482704Y-19285001D01*
X30482899Y-19287486D01*
X30528718Y-19445198D01*
X30612314Y-19586552D01*
X30617100Y-19592722D01*
X30614753Y-19594542D01*
X30641564Y-19643642D01*
X30636580Y-19713334D01*
X30615541Y-19746069D01*
X30617100Y-19747278D01*
X30612314Y-19753447D01*
X30528717Y-19894803D01*
X30528716Y-19894806D01*
X30496569Y-20005457D01*
X30458963Y-20064343D01*
X30395490Y-20093549D01*
X30326304Y-20083803D01*
X30273369Y-20038199D01*
X30270106Y-20032862D01*
X30254283Y-20005457D01*
X30232533Y-19967784D01*
X30105871Y-19827112D01*
X30105870Y-19827111D01*
X29952734Y-19715851D01*
X29952729Y-19715848D01*
X29779807Y-19638857D01*
X29779802Y-19638855D01*
X29632363Y-19607517D01*
X29594646Y-19599500D01*
X29405354Y-19599500D01*
X29372897Y-19606398D01*
X29220197Y-19638855D01*
X29220193Y-19638857D01*
X29152989Y-19668779D01*
X29102553Y-19679500D01*
X28510692Y-19679500D01*
X28443653Y-19659815D01*
X28397898Y-19607011D01*
X28387954Y-19537853D01*
X28403959Y-19492380D01*
X28409702Y-19482669D01*
X28431744Y-19445398D01*
X28466815Y-19324684D01*
X28477597Y-19287573D01*
X28477598Y-19287567D01*
X28480500Y-19250694D01*
X28480500Y-18819306D01*
X28477800Y-18784998D01*
X30482704Y-18784998D01*
X30482705Y-18785000D01*
X31705000Y-18785000D01*
X31705000Y-18015000D01*
X32205000Y-18015000D01*
X32205000Y-18785000D01*
X33427295Y-18785000D01*
X33427295Y-18784998D01*
X33427100Y-18782513D01*
X33381281Y-18624801D01*
X33316345Y-18515000D01*
X34155001Y-18515000D01*
X34155001Y-18727486D01*
X34165494Y-18830197D01*
X34220641Y-18996619D01*
X34220643Y-18996624D01*
X34312684Y-19145845D01*
X34436654Y-19269815D01*
X34585875Y-19361856D01*
X34585880Y-19361858D01*
X34752302Y-19417005D01*
X34752309Y-19417006D01*
X34855019Y-19427499D01*
X35754999Y-19427499D01*
X35755000Y-19427498D01*
X35755000Y-18515000D01*
X34155001Y-18515000D01*
X33316345Y-18515000D01*
X33297685Y-18483447D01*
X33292900Y-18477278D01*
X33295252Y-18475453D01*
X33268445Y-18426405D01*
X33273402Y-18356712D01*
X33294465Y-18323936D01*
X33292900Y-18322722D01*
X33297685Y-18316552D01*
X33381281Y-18175198D01*
X33427100Y-18017486D01*
X33427295Y-18015001D01*
X33427295Y-18015000D01*
X32205000Y-18015000D01*
X31705000Y-18015000D01*
X30482705Y-18015000D01*
X30482704Y-18015001D01*
X30482899Y-18017486D01*
X30528718Y-18175198D01*
X30612314Y-18316552D01*
X30617100Y-18322722D01*
X30614753Y-18324542D01*
X30641564Y-18373642D01*
X30636580Y-18443334D01*
X30615541Y-18476069D01*
X30617100Y-18477278D01*
X30612314Y-18483447D01*
X30528718Y-18624801D01*
X30482899Y-18782513D01*
X30482704Y-18784998D01*
X28477800Y-18784998D01*
X28477598Y-18782431D01*
X28474726Y-18772546D01*
X28431745Y-18624606D01*
X28431744Y-18624603D01*
X28431744Y-18624602D01*
X28348081Y-18483135D01*
X28348078Y-18483132D01*
X28343298Y-18476969D01*
X28345750Y-18475066D01*
X28319155Y-18426421D01*
X28324104Y-18356726D01*
X28344940Y-18324304D01*
X28343298Y-18323031D01*
X28348075Y-18316870D01*
X28348081Y-18316865D01*
X28431744Y-18175398D01*
X28477598Y-18017569D01*
X28480500Y-17980694D01*
X28480500Y-17549306D01*
X28477598Y-17512431D01*
X28473841Y-17499500D01*
X28439473Y-17381204D01*
X28431744Y-17354602D01*
X28431741Y-17354597D01*
X28428647Y-17347446D01*
X28429801Y-17346946D01*
X28414558Y-17286880D01*
X28436715Y-17220616D01*
X28450779Y-17203809D01*
X28727773Y-16926817D01*
X28789096Y-16893334D01*
X28815453Y-16890500D01*
X30635898Y-16890500D01*
X30702937Y-16910185D01*
X30748692Y-16962989D01*
X30758636Y-17032147D01*
X30729611Y-17095703D01*
X30723579Y-17102181D01*
X30612321Y-17213438D01*
X30612314Y-17213447D01*
X30528718Y-17354801D01*
X30482899Y-17512513D01*
X30482704Y-17514998D01*
X30482705Y-17515000D01*
X33427295Y-17515000D01*
X33427295Y-17514998D01*
X33427100Y-17512513D01*
X33381281Y-17354801D01*
X33297685Y-17213447D01*
X33297678Y-17213438D01*
X33186421Y-17102181D01*
X33152936Y-17040858D01*
X33157920Y-16971166D01*
X33199792Y-16915233D01*
X33265256Y-16890816D01*
X33274102Y-16890500D01*
X34655322Y-16890500D01*
X34722361Y-16910185D01*
X34768116Y-16962989D01*
X34778060Y-17032147D01*
X34749035Y-17095703D01*
X34694326Y-17132206D01*
X34585880Y-17168141D01*
X34585875Y-17168143D01*
X34436654Y-17260184D01*
X34312684Y-17384154D01*
X34220643Y-17533375D01*
X34220641Y-17533380D01*
X34165494Y-17699802D01*
X34165493Y-17699809D01*
X34155000Y-17802513D01*
X34155000Y-18015000D01*
X37854999Y-18015000D01*
X37854999Y-17802528D01*
X37854998Y-17802513D01*
X37844505Y-17699802D01*
X37789358Y-17533380D01*
X37789356Y-17533375D01*
X37697315Y-17384154D01*
X37573345Y-17260184D01*
X37424124Y-17168143D01*
X37424119Y-17168141D01*
X37315673Y-17132206D01*
X37258228Y-17092433D01*
X37231405Y-17027918D01*
X37243720Y-16959142D01*
X37291263Y-16907942D01*
X37354677Y-16890500D01*
X37417257Y-16890500D01*
X37432877Y-16892224D01*
X37432904Y-16891939D01*
X37440660Y-16892671D01*
X37440667Y-16892673D01*
X37507873Y-16890561D01*
X37511768Y-16890500D01*
X37539346Y-16890500D01*
X37539350Y-16890500D01*
X37543324Y-16889997D01*
X37554963Y-16889080D01*
X37598627Y-16887709D01*
X37617869Y-16882117D01*
X37636912Y-16878174D01*
X37656792Y-16875664D01*
X37697401Y-16859585D01*
X37708444Y-16855803D01*
X37750390Y-16843618D01*
X37767629Y-16833422D01*
X37785103Y-16824862D01*
X37803727Y-16817488D01*
X37803727Y-16817487D01*
X37803732Y-16817486D01*
X37839083Y-16791800D01*
X37848814Y-16785408D01*
X37886420Y-16763170D01*
X37900589Y-16748999D01*
X37915379Y-16736368D01*
X37931587Y-16724594D01*
X37959438Y-16690926D01*
X37967279Y-16682309D01*
X38569982Y-16079606D01*
X38631303Y-16046123D01*
X38700995Y-16051107D01*
G37*
%TD.AperFunction*%
%TA.AperFunction,Conductor*%
G36*
X27258884Y-12720185D02*
G01*
X27304639Y-12772989D01*
X27314583Y-12842147D01*
X27285558Y-12905703D01*
X27256635Y-12930227D01*
X27137057Y-13003504D01*
X27873432Y-13739878D01*
X27756542Y-13790651D01*
X27639261Y-13886066D01*
X27552072Y-14009585D01*
X27521644Y-14095198D01*
X26761419Y-13334973D01*
X26726911Y-13308263D01*
X26713755Y-13292859D01*
X26604759Y-13165241D01*
X26482063Y-13060449D01*
X26419176Y-13006738D01*
X26419173Y-13006737D01*
X26294321Y-12930227D01*
X26247446Y-12878415D01*
X26236023Y-12809486D01*
X26263680Y-12745323D01*
X26321636Y-12706298D01*
X26359111Y-12700500D01*
X27191845Y-12700500D01*
X27258884Y-12720185D01*
G37*
%TD.AperFunction*%
%TD*%
M02*
